<svg width="14" height="14" viewBox="0 0 14 14" fill="none" xmlns="http://www.w3.org/2000/svg">
<g id="Icon/Outline/pin">
<path id="Mask" fill-rule="evenodd" clip-rule="evenodd" d="M6.99992 6.41621C6.5175 6.41621 6.12492 6.02363 6.12492 5.54121C6.12492 5.0588 6.5175 4.66621 6.99992 4.66621C7.48234 4.66621 7.87492 5.0588 7.87492 5.54121C7.87492 6.02363 7.48234 6.41621 6.99992 6.41621ZM6.99992 3.49955C5.87408 3.49955 4.95825 4.41538 4.95825 5.54121C4.95825 6.66705 5.87408 7.58288 6.99992 7.58288C8.12575 7.58288 9.04158 6.66705 9.04158 5.54121C9.04158 4.41538 8.12575 3.49955 6.99992 3.49955ZM6.99992 11.46C6.02284 10.536 3.49992 7.94192 3.49992 5.78767C3.49992 3.88309 5.06967 2.33317 6.99992 2.33317C8.93017 2.33317 10.4999 3.88309 10.4999 5.78767C10.4999 7.94192 7.977 10.536 6.99992 11.46ZM6.99992 1.1665C4.42684 1.1665 2.33325 3.23909 2.33325 5.78767C2.33325 8.98142 6.44517 12.5421 6.62017 12.692C6.72983 12.7859 6.86458 12.8332 6.99992 12.8332C7.13525 12.8332 7.27 12.7859 7.37967 12.692C7.55467 12.5421 11.6666 8.98142 11.6666 5.78767C11.6666 3.23909 9.573 1.1665 6.99992 1.1665Z" fill="#231F20"/>
<mask id="mask0" mask-type="alpha" maskUnits="userSpaceOnUse" x="2" y="1" width="10" height="12">
<path id="Mask_2" fill-rule="evenodd" clip-rule="evenodd" d="M6.99992 6.41621C6.5175 6.41621 6.12492 6.02363 6.12492 5.54121C6.12492 5.0588 6.5175 4.66621 6.99992 4.66621C7.48234 4.66621 7.87492 5.0588 7.87492 5.54121C7.87492 6.02363 7.48234 6.41621 6.99992 6.41621ZM6.99992 3.49955C5.87408 3.49955 4.95825 4.41538 4.95825 5.54121C4.95825 6.66705 5.87408 7.58288 6.99992 7.58288C8.12575 7.58288 9.04158 6.66705 9.04158 5.54121C9.04158 4.41538 8.12575 3.49955 6.99992 3.49955ZM6.99992 11.46C6.02284 10.536 3.49992 7.94192 3.49992 5.78767C3.49992 3.88309 5.06967 2.33317 6.99992 2.33317C8.93017 2.33317 10.4999 3.88309 10.4999 5.78767C10.4999 7.94192 7.977 10.536 6.99992 11.46ZM6.99992 1.1665C4.42684 1.1665 2.33325 3.23909 2.33325 5.78767C2.33325 8.98142 6.44517 12.5421 6.62017 12.692C6.72983 12.7859 6.86458 12.8332 6.99992 12.8332C7.13525 12.8332 7.27 12.7859 7.37967 12.692C7.55467 12.5421 11.6666 8.98142 11.6666 5.78767C11.6666 3.23909 9.573 1.1665 6.99992 1.1665Z" fill="white"/>
</mask>
<g mask="url(#mask0)">
<g id="&#240;&#159;&#142;&#168; Color">
<rect id="Base" width="14" height="14" fill="#BBBBBB"/>
</g>
</g>
</g>
</svg>
