<svg width="14" height="14" viewBox="0 0 14 14" fill="none" xmlns="http://www.w3.org/2000/svg">
<g id="Icon/Outline/briefcase">
<path id="Mask" fill-rule="evenodd" clip-rule="evenodd" d="M11.6667 10.5C11.6667 10.8214 11.4048 11.0833 11.0834 11.0833H9.91675V5.25H11.0834C11.4048 5.25 11.6667 5.51192 11.6667 5.83333V10.5ZM2.33341 10.5V5.83333C2.33341 5.51192 2.59533 5.25 2.91675 5.25H4.08341V11.0833H2.91675C2.59533 11.0833 2.33341 10.8214 2.33341 10.5ZM5.83341 3.20833C5.83341 3.04733 5.96408 2.91667 6.12508 2.91667H7.87508C8.03608 2.91667 8.16675 3.04733 8.16675 3.20833V4.08333H5.83341V3.20833ZM5.25008 11.0833H8.75008V5.25H5.25008V11.0833ZM11.0834 4.08333H9.33342V3.20833C9.33342 2.4045 8.67892 1.75 7.87508 1.75H6.12508C5.32125 1.75 4.66675 2.4045 4.66675 3.20833V4.08333H2.91675C1.95191 4.08333 1.16675 4.8685 1.16675 5.83333V10.5C1.16675 11.4648 1.95191 12.25 2.91675 12.25H11.0834C12.0482 12.25 12.8334 11.4648 12.8334 10.5V5.83333C12.8334 4.8685 12.0482 4.08333 11.0834 4.08333Z" fill="#231F20"/>
<mask id="mask0" mask-type="alpha" maskUnits="userSpaceOnUse" x="1" y="1" width="12" height="12">
<path id="Mask_2" fill-rule="evenodd" clip-rule="evenodd" d="M11.6667 10.5C11.6667 10.8214 11.4048 11.0833 11.0834 11.0833H9.91675V5.25H11.0834C11.4048 5.25 11.6667 5.51192 11.6667 5.83333V10.5ZM2.33341 10.5V5.83333C2.33341 5.51192 2.59533 5.25 2.91675 5.25H4.08341V11.0833H2.91675C2.59533 11.0833 2.33341 10.8214 2.33341 10.5ZM5.83341 3.20833C5.83341 3.04733 5.96408 2.91667 6.12508 2.91667H7.87508C8.03608 2.91667 8.16675 3.04733 8.16675 3.20833V4.08333H5.83341V3.20833ZM5.25008 11.0833H8.75008V5.25H5.25008V11.0833ZM11.0834 4.08333H9.33342V3.20833C9.33342 2.4045 8.67892 1.75 7.87508 1.75H6.12508C5.32125 1.75 4.66675 2.4045 4.66675 3.20833V4.08333H2.91675C1.95191 4.08333 1.16675 4.8685 1.16675 5.83333V10.5C1.16675 11.4648 1.95191 12.25 2.91675 12.25H11.0834C12.0482 12.25 12.8334 11.4648 12.8334 10.5V5.83333C12.8334 4.8685 12.0482 4.08333 11.0834 4.08333Z" fill="white"/>
</mask>
<g mask="url(#mask0)">
<g id="&#240;&#159;&#142;&#168; Color">
<rect id="Base" width="14" height="14" fill="#BBBBBB"/>
</g>
</g>
</g>
</svg>
