<svg width="14" height="14" viewBox="0 0 14 14" fill="none" xmlns="http://www.w3.org/2000/svg">
<g id="Icon/Outline/keypad">
<path id="Mask" fill-rule="evenodd" clip-rule="evenodd" d="M11.0834 11.6665C10.7608 11.6665 10.5001 11.4058 10.5001 11.0832C10.5001 10.7606 10.7608 10.4998 11.0834 10.4998C11.406 10.4998 11.6667 10.7606 11.6667 11.0832C11.6667 11.4058 11.406 11.6665 11.0834 11.6665ZM11.0834 9.33317C10.1186 9.33317 9.33342 10.1183 9.33342 11.0832C9.33342 12.048 10.1186 12.8332 11.0834 12.8332C12.0482 12.8332 12.8334 12.048 12.8334 11.0832C12.8334 10.1183 12.0482 9.33317 11.0834 9.33317ZM7.00008 11.6665C6.6775 11.6665 6.41675 11.4058 6.41675 11.0832C6.41675 10.7606 6.6775 10.4998 7.00008 10.4998C7.32266 10.4998 7.58341 10.7606 7.58341 11.0832C7.58341 11.4058 7.32266 11.6665 7.00008 11.6665ZM7.00008 9.33317C6.03525 9.33317 5.25008 10.1183 5.25008 11.0832C5.25008 12.048 6.03525 12.8332 7.00008 12.8332C7.96491 12.8332 8.75008 12.048 8.75008 11.0832C8.75008 10.1183 7.96491 9.33317 7.00008 9.33317ZM2.91675 11.6665C2.59416 11.6665 2.33341 11.4058 2.33341 11.0832C2.33341 10.7606 2.59416 10.4998 2.91675 10.4998C3.23933 10.4998 3.50008 10.7606 3.50008 11.0832C3.50008 11.4058 3.23933 11.6665 2.91675 11.6665ZM2.91675 9.33317C1.95191 9.33317 1.16675 10.1183 1.16675 11.0832C1.16675 12.048 1.95191 12.8332 2.91675 12.8332C3.88158 12.8332 4.66675 12.048 4.66675 11.0832C4.66675 10.1183 3.88158 9.33317 2.91675 9.33317ZM11.0834 7.58317C10.7608 7.58317 10.5001 7.32242 10.5001 6.99984C10.5001 6.67725 10.7608 6.4165 11.0834 6.4165C11.406 6.4165 11.6667 6.67725 11.6667 6.99984C11.6667 7.32242 11.406 7.58317 11.0834 7.58317ZM11.0834 5.24984C10.1186 5.24984 9.33342 6.035 9.33342 6.99984C9.33342 7.96467 10.1186 8.74984 11.0834 8.74984C12.0482 8.74984 12.8334 7.96467 12.8334 6.99984C12.8334 6.035 12.0482 5.24984 11.0834 5.24984ZM7.00008 7.58317C6.6775 7.58317 6.41675 7.32242 6.41675 6.99984C6.41675 6.67725 6.6775 6.4165 7.00008 6.4165C7.32266 6.4165 7.58341 6.67725 7.58341 6.99984C7.58341 7.32242 7.32266 7.58317 7.00008 7.58317ZM7.00008 5.24984C6.03525 5.24984 5.25008 6.035 5.25008 6.99984C5.25008 7.96467 6.03525 8.74984 7.00008 8.74984C7.96491 8.74984 8.75008 7.96467 8.75008 6.99984C8.75008 6.035 7.96491 5.24984 7.00008 5.24984ZM2.91675 7.58317C2.59416 7.58317 2.33341 7.32242 2.33341 6.99984C2.33341 6.67725 2.59416 6.4165 2.91675 6.4165C3.23933 6.4165 3.50008 6.67725 3.50008 6.99984C3.50008 7.32242 3.23933 7.58317 2.91675 7.58317ZM2.91675 5.24984C1.95191 5.24984 1.16675 6.035 1.16675 6.99984C1.16675 7.96467 1.95191 8.74984 2.91675 8.74984C3.88158 8.74984 4.66675 7.96467 4.66675 6.99984C4.66675 6.035 3.88158 5.24984 2.91675 5.24984ZM11.0834 2.33317C11.406 2.33317 11.6667 2.59392 11.6667 2.9165C11.6667 3.23909 11.406 3.49984 11.0834 3.49984C10.7608 3.49984 10.5001 3.23909 10.5001 2.9165C10.5001 2.59392 10.7608 2.33317 11.0834 2.33317ZM11.0834 4.6665C12.0482 4.6665 12.8334 3.88134 12.8334 2.9165C12.8334 1.95167 12.0482 1.1665 11.0834 1.1665C10.1186 1.1665 9.33342 1.95167 9.33342 2.9165C9.33342 3.88134 10.1186 4.6665 11.0834 4.6665ZM7.00008 3.49984C6.6775 3.49984 6.41675 3.2385 6.41675 2.9165C6.41675 2.59392 6.6775 2.33317 7.00008 2.33317C7.32266 2.33317 7.58341 2.59392 7.58341 2.9165C7.58341 3.2385 7.32266 3.49984 7.00008 3.49984ZM7.00008 1.1665C6.03525 1.1665 5.25008 1.95167 5.25008 2.9165C5.25008 3.88134 6.03525 4.6665 7.00008 4.6665C7.96491 4.6665 8.75008 3.88134 8.75008 2.9165C8.75008 1.95167 7.96491 1.1665 7.00008 1.1665ZM2.91675 3.49984C2.59416 3.49984 2.33341 3.23909 2.33341 2.9165C2.33341 2.59392 2.59416 2.33317 2.91675 2.33317C3.23933 2.33317 3.50008 2.59392 3.50008 2.9165C3.50008 3.23909 3.23933 3.49984 2.91675 3.49984ZM2.91675 1.1665C1.95191 1.1665 1.16675 1.95167 1.16675 2.9165C1.16675 3.88134 1.95191 4.6665 2.91675 4.6665C3.88158 4.6665 4.66675 3.88134 4.66675 2.9165C4.66675 1.95167 3.88158 1.1665 2.91675 1.1665Z" fill="#231F20"/>
<mask id="mask0" mask-type="alpha" maskUnits="userSpaceOnUse" x="1" y="1" width="12" height="12">
<path id="Mask_2" fill-rule="evenodd" clip-rule="evenodd" d="M11.0834 11.6665C10.7608 11.6665 10.5001 11.4058 10.5001 11.0832C10.5001 10.7606 10.7608 10.4998 11.0834 10.4998C11.406 10.4998 11.6667 10.7606 11.6667 11.0832C11.6667 11.4058 11.406 11.6665 11.0834 11.6665ZM11.0834 9.33317C10.1186 9.33317 9.33342 10.1183 9.33342 11.0832C9.33342 12.048 10.1186 12.8332 11.0834 12.8332C12.0482 12.8332 12.8334 12.048 12.8334 11.0832C12.8334 10.1183 12.0482 9.33317 11.0834 9.33317ZM7.00008 11.6665C6.6775 11.6665 6.41675 11.4058 6.41675 11.0832C6.41675 10.7606 6.6775 10.4998 7.00008 10.4998C7.32266 10.4998 7.58341 10.7606 7.58341 11.0832C7.58341 11.4058 7.32266 11.6665 7.00008 11.6665ZM7.00008 9.33317C6.03525 9.33317 5.25008 10.1183 5.25008 11.0832C5.25008 12.048 6.03525 12.8332 7.00008 12.8332C7.96491 12.8332 8.75008 12.048 8.75008 11.0832C8.75008 10.1183 7.96491 9.33317 7.00008 9.33317ZM2.91675 11.6665C2.59416 11.6665 2.33341 11.4058 2.33341 11.0832C2.33341 10.7606 2.59416 10.4998 2.91675 10.4998C3.23933 10.4998 3.50008 10.7606 3.50008 11.0832C3.50008 11.4058 3.23933 11.6665 2.91675 11.6665ZM2.91675 9.33317C1.95191 9.33317 1.16675 10.1183 1.16675 11.0832C1.16675 12.048 1.95191 12.8332 2.91675 12.8332C3.88158 12.8332 4.66675 12.048 4.66675 11.0832C4.66675 10.1183 3.88158 9.33317 2.91675 9.33317ZM11.0834 7.58317C10.7608 7.58317 10.5001 7.32242 10.5001 6.99984C10.5001 6.67725 10.7608 6.4165 11.0834 6.4165C11.406 6.4165 11.6667 6.67725 11.6667 6.99984C11.6667 7.32242 11.406 7.58317 11.0834 7.58317ZM11.0834 5.24984C10.1186 5.24984 9.33342 6.035 9.33342 6.99984C9.33342 7.96467 10.1186 8.74984 11.0834 8.74984C12.0482 8.74984 12.8334 7.96467 12.8334 6.99984C12.8334 6.035 12.0482 5.24984 11.0834 5.24984ZM7.00008 7.58317C6.6775 7.58317 6.41675 7.32242 6.41675 6.99984C6.41675 6.67725 6.6775 6.4165 7.00008 6.4165C7.32266 6.4165 7.58341 6.67725 7.58341 6.99984C7.58341 7.32242 7.32266 7.58317 7.00008 7.58317ZM7.00008 5.24984C6.03525 5.24984 5.25008 6.035 5.25008 6.99984C5.25008 7.96467 6.03525 8.74984 7.00008 8.74984C7.96491 8.74984 8.75008 7.96467 8.75008 6.99984C8.75008 6.035 7.96491 5.24984 7.00008 5.24984ZM2.91675 7.58317C2.59416 7.58317 2.33341 7.32242 2.33341 6.99984C2.33341 6.67725 2.59416 6.4165 2.91675 6.4165C3.23933 6.4165 3.50008 6.67725 3.50008 6.99984C3.50008 7.32242 3.23933 7.58317 2.91675 7.58317ZM2.91675 5.24984C1.95191 5.24984 1.16675 6.035 1.16675 6.99984C1.16675 7.96467 1.95191 8.74984 2.91675 8.74984C3.88158 8.74984 4.66675 7.96467 4.66675 6.99984C4.66675 6.035 3.88158 5.24984 2.91675 5.24984ZM11.0834 2.33317C11.406 2.33317 11.6667 2.59392 11.6667 2.9165C11.6667 3.23909 11.406 3.49984 11.0834 3.49984C10.7608 3.49984 10.5001 3.23909 10.5001 2.9165C10.5001 2.59392 10.7608 2.33317 11.0834 2.33317ZM11.0834 4.6665C12.0482 4.6665 12.8334 3.88134 12.8334 2.9165C12.8334 1.95167 12.0482 1.1665 11.0834 1.1665C10.1186 1.1665 9.33342 1.95167 9.33342 2.9165C9.33342 3.88134 10.1186 4.6665 11.0834 4.6665ZM7.00008 3.49984C6.6775 3.49984 6.41675 3.2385 6.41675 2.9165C6.41675 2.59392 6.6775 2.33317 7.00008 2.33317C7.32266 2.33317 7.58341 2.59392 7.58341 2.9165C7.58341 3.2385 7.32266 3.49984 7.00008 3.49984ZM7.00008 1.1665C6.03525 1.1665 5.25008 1.95167 5.25008 2.9165C5.25008 3.88134 6.03525 4.6665 7.00008 4.6665C7.96491 4.6665 8.75008 3.88134 8.75008 2.9165C8.75008 1.95167 7.96491 1.1665 7.00008 1.1665ZM2.91675 3.49984C2.59416 3.49984 2.33341 3.23909 2.33341 2.9165C2.33341 2.59392 2.59416 2.33317 2.91675 2.33317C3.23933 2.33317 3.50008 2.59392 3.50008 2.9165C3.50008 3.23909 3.23933 3.49984 2.91675 3.49984ZM2.91675 1.1665C1.95191 1.1665 1.16675 1.95167 1.16675 2.9165C1.16675 3.88134 1.95191 4.6665 2.91675 4.6665C3.88158 4.6665 4.66675 3.88134 4.66675 2.9165C4.66675 1.95167 3.88158 1.1665 2.91675 1.1665Z" fill="white"/>
</mask>
<g mask="url(#mask0)">
<g id="&#240;&#159;&#142;&#168; Color">
<rect id="Base" width="14" height="14" fill="#BBBBBB"/>
</g>
</g>
</g>
</svg>
