<svg width="14" height="14" viewBox="0 0 14 14" fill="none" xmlns="http://www.w3.org/2000/svg">
<path fill-rule="evenodd" clip-rule="evenodd" d="M11.0834 10.4999H2.91675C2.59533 10.4999 2.33341 10.2386 2.33341 9.91659V4.22909L6.65008 7.46659C6.75391 7.54475 6.877 7.58325 7.00008 7.58325C7.12316 7.58325 7.24625 7.54475 7.35008 7.46659L11.6667 4.22909V9.91659C11.6667 10.2386 11.4048 10.4999 11.0834 10.4999ZM10.6943 3.49992L7.00008 6.27075L3.30583 3.49992H10.6943ZM11.0834 2.33325H2.91675C1.95191 2.33325 1.16675 3.11842 1.16675 4.08325V9.91658C1.16675 10.8814 1.95191 11.6666 2.91675 11.6666H11.0834C12.0482 11.6666 12.8334 10.8814 12.8334 9.91658V4.08325C12.8334 3.11842 12.0482 2.33325 11.0834 2.33325Z" fill="#231F20"/>
<mask id="mask0" mask-type="alpha" maskUnits="userSpaceOnUse" x="1" y="2" width="12" height="10">
<path fill-rule="evenodd" clip-rule="evenodd" d="M11.0834 10.4999H2.91675C2.59533 10.4999 2.33341 10.2386 2.33341 9.91659V4.22909L6.65008 7.46659C6.75391 7.54475 6.877 7.58325 7.00008 7.58325C7.12316 7.58325 7.24625 7.54475 7.35008 7.46659L11.6667 4.22909V9.91659C11.6667 10.2386 11.4048 10.4999 11.0834 10.4999ZM10.6943 3.49992L7.00008 6.27075L3.30583 3.49992H10.6943ZM11.0834 2.33325H2.91675C1.95191 2.33325 1.16675 3.11842 1.16675 4.08325V9.91658C1.16675 10.8814 1.95191 11.6666 2.91675 11.6666H11.0834C12.0482 11.6666 12.8334 10.8814 12.8334 9.91658V4.08325C12.8334 3.11842 12.0482 2.33325 11.0834 2.33325Z" fill="white"/>
</mask>
<g mask="url(#mask0)">
<rect width="14" height="14" fill="#BBBBBB"/>
</g>
</svg>
