<svg width="14" height="14" viewBox="0 0 14 14" fill="none" xmlns="http://www.w3.org/2000/svg">
<path fill-rule="evenodd" clip-rule="evenodd" d="M6.99992 9.33342C6.67792 9.33342 6.41659 9.07208 6.41659 8.75008C6.41659 8.42808 6.67792 8.16675 6.99992 8.16675C7.32192 8.16675 7.58325 8.42808 7.58325 8.75008C7.58325 9.07208 7.32192 9.33342 6.99992 9.33342ZM6.99992 7.00008C6.03508 7.00008 5.24992 7.78525 5.24992 8.75008C5.24992 9.71491 6.03508 10.5001 6.99992 10.5001C7.96475 10.5001 8.74992 9.71491 8.74992 8.75008C8.74992 7.78525 7.96475 7.00008 6.99992 7.00008ZM10.4999 11.0834C10.4999 11.4054 10.2386 11.6667 9.91658 11.6667H4.08325C3.76125 11.6667 3.49992 11.4054 3.49992 11.0834V6.41675C3.49992 6.09475 3.76125 5.83341 4.08325 5.83341H4.66658H5.83325H8.16658H9.33325H9.91658C10.2386 5.83341 10.4999 6.09475 10.4999 6.41675V11.0834ZM5.83325 3.56483C5.83325 2.88583 6.3565 2.33341 6.99992 2.33341C7.64333 2.33341 8.16658 2.88583 8.16658 3.56483V4.66675H5.83325V3.56483ZM9.91658 4.66675H9.33325V3.56483C9.33325 2.243 8.28675 1.16675 6.99992 1.16675C5.71308 1.16675 4.66658 2.243 4.66658 3.56483V4.66675H4.08325C3.11842 4.66675 2.33325 5.45191 2.33325 6.41675V11.0834C2.33325 12.0482 3.11842 12.8334 4.08325 12.8334H9.91658C10.8814 12.8334 11.6666 12.0482 11.6666 11.0834V6.41675C11.6666 5.45191 10.8814 4.66675 9.91658 4.66675Z" fill="#231F20"/>
<mask id="mask0" mask-type="alpha" maskUnits="userSpaceOnUse" x="2" y="1" width="10" height="12">
<path fill-rule="evenodd" clip-rule="evenodd" d="M6.99992 9.33342C6.67792 9.33342 6.41659 9.07208 6.41659 8.75008C6.41659 8.42808 6.67792 8.16675 6.99992 8.16675C7.32192 8.16675 7.58325 8.42808 7.58325 8.75008C7.58325 9.07208 7.32192 9.33342 6.99992 9.33342ZM6.99992 7.00008C6.03508 7.00008 5.24992 7.78525 5.24992 8.75008C5.24992 9.71491 6.03508 10.5001 6.99992 10.5001C7.96475 10.5001 8.74992 9.71491 8.74992 8.75008C8.74992 7.78525 7.96475 7.00008 6.99992 7.00008ZM10.4999 11.0834C10.4999 11.4054 10.2386 11.6667 9.91658 11.6667H4.08325C3.76125 11.6667 3.49992 11.4054 3.49992 11.0834V6.41675C3.49992 6.09475 3.76125 5.83341 4.08325 5.83341H4.66658H5.83325H8.16658H9.33325H9.91658C10.2386 5.83341 10.4999 6.09475 10.4999 6.41675V11.0834ZM5.83325 3.56483C5.83325 2.88583 6.3565 2.33341 6.99992 2.33341C7.64333 2.33341 8.16658 2.88583 8.16658 3.56483V4.66675H5.83325V3.56483ZM9.91658 4.66675H9.33325V3.56483C9.33325 2.243 8.28675 1.16675 6.99992 1.16675C5.71308 1.16675 4.66658 2.243 4.66658 3.56483V4.66675H4.08325C3.11842 4.66675 2.33325 5.45191 2.33325 6.41675V11.0834C2.33325 12.0482 3.11842 12.8334 4.08325 12.8334H9.91658C10.8814 12.8334 11.6666 12.0482 11.6666 11.0834V6.41675C11.6666 5.45191 10.8814 4.66675 9.91658 4.66675Z" fill="white"/>
</mask>
<g mask="url(#mask0)">
<rect width="14" height="14" fill="#BBBBBB"/>
</g>
</svg>
