<svg width="24" height="24" viewBox="0 0 24 24" fill="none" xmlns="http://www.w3.org/2000/svg">
<g id="Icon/Fill/arrow-ios-down">
<path id="Vector" fill-rule="evenodd" clip-rule="evenodd" d="M8.00002 12C8.00002 11.772 8.07702 11.545 8.23202 11.36L13.232 5.36003C13.585 4.93603 14.216 4.87803 14.64 5.23203C15.064 5.58503 15.121 6.21503 14.768 6.64003L10.292 12.011L14.607 17.373C14.953 17.803 14.885 18.433 14.455 18.779C14.025 19.125 13.396 19.057 13.049 18.627L8.22102 12.627C8.07402 12.444 8.00002 12.222 8.00002 12Z" fill="#343434"/>
<mask id="mask0" mask-type="alpha" maskUnits="userSpaceOnUse" x="8" y="5" width="7" height="14">
<path id="Vector_2" fill-rule="evenodd" clip-rule="evenodd" d="M8.00002 12C8.00002 11.772 8.07702 11.545 8.23202 11.36L13.232 5.36003C13.585 4.93603 14.216 4.87803 14.64 5.23203C15.064 5.58503 15.121 6.21503 14.768 6.64003L10.292 12.011L14.607 17.373C14.953 17.803 14.885 18.433 14.455 18.779C14.025 19.125 13.396 19.057 13.049 18.627L8.22102 12.627C8.07402 12.444 8.00002 12.222 8.00002 12Z" fill="white"/>
</mask>
<g mask="url(#mask0)">
<g id="Frame">
<rect id="Rectangle" x="24" width="24" height="24" transform="rotate(90 24 0)" fill="#343434"/>
</g>
</g>
</g>
</svg>
