<svg width="160" height="43" viewBox="0 0 160 43" fill="none" xmlns="http://www.w3.org/2000/svg">
<path d="M44.0675 29.524C43.9223 29.3324 43.7742 29.1421 43.6248 28.9536C41.1662 25.8542 38.7265 22.7415 36.2325 19.6686C35.7369 19.058 35.6643 18.5592 35.9157 17.8303C37.1786 14.1698 38.3776 10.489 39.5908 6.81299C39.816 6.1305 39.8119 5.47274 39.2115 4.93594C38.6295 4.41546 37.9808 4.37441 37.248 4.61986C36.0178 5.03217 34.7724 5.40211 33.533 5.7897C30.9094 6.57991 28.2761 7.3423 25.6681 8.17753C24.9399 8.41105 24.4475 8.29319 23.8531 7.85217C20.5045 5.36723 17.1186 2.92865 13.7502 0.467986C13.1788 0.0508129 12.5908 -0.164179 11.8884 0.149695C11.2222 0.447234 10.9887 0.96991 11.0163 1.63695C11.1399 4.61367 11.264 7.59083 11.3882 10.5676C11.419 11.6147 11.4102 12.6645 11.4939 13.7076C11.5495 14.4003 11.2958 14.8042 10.6935 15.1962C7.39365 17.3456 4.13283 19.5507 0.847657 21.7204C0.234847 22.1253 -0.084201 22.6148 0.0192365 23.3423C0.124053 24.0782 0.599407 24.4517 1.29451 24.6698C3.0364 25.2159 4.79759 25.7169 6.50362 26.3535C9.26747 27.3843 11.8074 26.9318 14.2932 25.5553C17.6574 23.6915 20.0659 20.8057 22.827 18.2952C23.3 17.8652 22.9295 17.7677 22.5801 17.629C21.2773 17.1112 19.9772 16.5881 18.6771 16.0645C17.5066 15.5935 16.3375 15.1212 15.1685 14.6479C14.8168 14.5053 14.5451 14.3009 14.6554 13.882C14.7543 13.5063 15.0816 13.475 15.4094 13.4688C15.5859 13.4653 15.7624 13.4728 15.939 13.4781C19.254 13.5822 22.5746 13.6162 25.8823 13.8255C27.2707 13.9133 27.8623 13.2441 28.8627 12.4018C29.7256 11.6787 29.8152 11.409 30.5329 10.9432C31.1962 10.5274 31.9033 10.2453 32.6683 10.0828C33.6259 9.87977 34.1169 10.3323 33.8801 11.2575C33.6516 12.1506 33.2636 12.9863 32.5777 13.6604C31.9125 14.3142 31.2689 14.9909 30.5683 15.6085C30.1108 16.0116 29.9463 16.4446 29.972 17.0353C30.1085 20.1789 30.2106 23.3234 30.3246 26.4678C30.3251 27.4832 30.3439 27.1106 30.3177 27.7441C30.3048 28.0606 30.2497 28.3709 29.8892 28.4764C29.5596 28.5727 29.3629 28.3409 29.2061 28.1096C29.0916 27.9405 29.0029 27.7525 28.9224 27.5653C28.1423 25.7505 27.3672 23.9339 26.5889 22.1182C25.7646 20.1957 25.7536 20.1864 24.2144 21.6913C22.0179 23.839 19.6218 25.8136 18.0022 28.4566C16.4152 31.0461 15.5694 33.671 16.9596 36.6354C17.5921 37.9845 17.982 39.4404 18.4532 40.857C18.7203 41.6591 19.0186 42.3911 20.0332 42.5464C21.0718 42.7054 21.5517 42.0383 22.0455 41.3563C24.2558 38.3001 26.4855 35.2567 28.6747 32.1869C29.0181 31.7057 29.3794 31.515 29.9743 31.5384C31.0868 31.5821 32.2021 31.5609 33.3165 31.5671C36.4522 31.7074 39.588 31.8478 42.7238 31.9886C43.3743 32.0178 43.9356 31.828 44.2312 31.2501C44.5282 30.6669 44.479 30.0679 44.0675 29.524Z" fill="#9E9E9E"/>
<path d="M44.0675 29.524C43.9223 29.3324 43.7742 29.1421 43.6248 28.9536C41.1662 25.8542 38.7265 22.7415 36.2325 19.6686C35.7369 19.058 35.6643 18.5592 35.9157 17.8303C37.1786 14.1698 38.3776 10.489 39.5908 6.81299C39.816 6.1305 39.8119 5.47274 39.2115 4.93594C38.6295 4.41546 37.9808 4.37441 37.248 4.61986C36.0178 5.03217 34.7724 5.40211 33.533 5.7897C30.9094 6.57991 28.2761 7.3423 25.6681 8.17753C24.9399 8.41105 24.4475 8.29319 23.8531 7.85217C20.5045 5.36723 17.1186 2.92865 13.7502 0.467986C13.1788 0.0508129 12.5908 -0.164179 11.8884 0.149695C11.2222 0.447234 10.9887 0.96991 11.0163 1.63695C11.1399 4.61367 11.264 7.59083 11.3882 10.5676C11.419 11.6147 11.4102 12.6645 11.4939 13.7076C11.5495 14.4003 11.2958 14.8042 10.6935 15.1962C7.39365 17.3456 4.13283 19.5507 0.847657 21.7204C0.234847 22.1253 -0.084201 22.6148 0.0192365 23.3423C0.124053 24.0782 0.599407 24.4517 1.29451 24.6698C3.0364 25.2159 4.79759 25.7169 6.50362 26.3535C9.26747 27.3843 11.8074 26.9318 14.2932 25.5553C17.6574 23.6915 20.0659 20.8057 22.827 18.2952C23.3 17.8652 22.9295 17.7677 22.5801 17.629C21.2773 17.1112 19.9772 16.5881 18.6771 16.0645C17.5066 15.5935 16.3375 15.1212 15.1685 14.6479C14.8168 14.5053 14.5451 14.3009 14.6554 13.882C14.7543 13.5063 15.0816 13.475 15.4094 13.4688C15.5859 13.4653 15.7624 13.4728 15.939 13.4781C19.254 13.5822 22.5746 13.6162 25.8823 13.8255C27.2707 13.9133 27.8623 13.2441 28.8627 12.4018C29.7256 11.6787 29.8152 11.409 30.5329 10.9432C31.1962 10.5274 31.9033 10.2453 32.6683 10.0828C33.6259 9.87977 34.1169 10.3323 33.8801 11.2575C33.6516 12.1506 33.2636 12.9863 32.5777 13.6604C31.9125 14.3142 31.2689 14.9909 30.5683 15.6085C30.1108 16.0116 29.9463 16.4446 29.972 17.0353C30.1085 20.1789 30.2106 23.3234 30.3246 26.4678C30.3251 27.4832 30.3439 27.1106 30.3177 27.7441C30.3048 28.0606 30.2497 28.3709 29.8892 28.4764C29.5596 28.5727 29.3629 28.3409 29.2061 28.1096C29.0916 27.9405 29.0029 27.7525 28.9224 27.5653C28.1423 25.7505 27.3672 23.9339 26.5889 22.1182C25.7646 20.1957 25.7536 20.1864 24.2144 21.6913C22.0179 23.839 19.6218 25.8136 18.0022 28.4566C16.4152 31.0461 15.5694 33.671 16.9596 36.6354C17.5921 37.9845 17.982 39.4404 18.4532 40.857C18.7203 41.6591 19.0186 42.3911 20.0332 42.5464C21.0718 42.7054 21.5517 42.0383 22.0455 41.3563C24.2558 38.3001 26.4855 35.2567 28.6747 32.1869C29.0181 31.7057 29.3794 31.515 29.9743 31.5384C31.0868 31.5821 32.2021 31.5609 33.3165 31.5671C36.4522 31.7074 39.588 31.8478 42.7238 31.9886C43.3743 32.0178 43.9356 31.828 44.2312 31.2501C44.5282 30.6669 44.479 30.0679 44.0675 29.524Z" fill="#9E9E9E"/>
<path d="M62.2131 30.59C62.8334 31.3197 63.5632 31.9765 64.4389 32.5239C65.935 33.5091 68.2338 34.4213 71.3353 34.4213C76.9911 34.4213 80.4575 30.9549 80.4575 26.9411C80.4575 17.454 66.9567 20.9205 66.9567 15.2647C66.9567 13.4038 68.5987 11.7983 71.7002 11.7983C73.4152 11.7983 74.7652 12.4186 75.641 13.0024C76.1518 13.3308 76.5897 13.7322 76.9911 14.1701L79.7277 11.4334C79.1804 10.8131 78.4871 10.2658 77.6843 9.79141C76.3343 8.95217 74.3274 8.14941 71.7002 8.14941C66.2634 8.14941 62.9429 11.4334 62.9429 15.2647C62.9429 24.7518 76.4437 21.2853 76.4437 26.9411C76.4437 28.9845 74.6558 30.7724 71.3353 30.7724C69.146 30.7724 67.5405 30.0426 66.4823 29.3129C65.862 28.875 65.3512 28.4006 64.9498 27.8533L62.2131 30.59Z" fill="#9E9E9E"/>
<path d="M84.6651 34.0564H88.314V29.3129L91.2331 26.2113L96.7064 34.0564H100.903L93.6048 23.6571L100.355 16.5418H95.7941L88.314 24.5693V8.5143H84.6651V34.0564Z" fill="#9E9E9E"/>
<path d="M101.989 25.2991C101.989 30.4075 106.002 34.4213 111.111 34.4213C116.219 34.4213 120.233 30.4075 120.233 25.2991C120.233 20.1907 116.219 16.1769 111.111 16.1769C106.002 16.1769 101.989 20.1907 101.989 25.2991ZM111.111 30.9549C108.009 30.9549 105.638 28.6196 105.638 25.2991C105.638 21.9786 108.009 19.6434 111.111 19.6434C114.212 19.6434 116.584 21.9786 116.584 25.2991C116.584 28.6196 114.212 30.9549 111.111 30.9549Z" fill="#9E9E9E"/>
<path d="M124.432 34.0564H128.081V29.3129L131 26.2113L136.473 34.0564H140.67L133.372 23.6571L140.122 16.5418H135.561L128.081 24.5693V8.5143H124.432V34.0564Z" fill="#9E9E9E"/>
<path d="M141.756 25.2991C141.756 30.4075 145.769 34.4213 150.878 34.4213C155.986 34.4213 160 30.4075 160 25.2991C160 20.1907 155.986 16.1769 150.878 16.1769C145.769 16.1769 141.756 20.1907 141.756 25.2991ZM150.878 30.9549C147.776 30.9549 145.405 28.6196 145.405 25.2991C145.405 21.9786 147.776 19.6434 150.878 19.6434C153.979 19.6434 156.351 21.9786 156.351 25.2991C156.351 28.6196 153.979 30.9549 150.878 30.9549Z" fill="#9E9E9E"/>
</svg>
