<svg width="134" height="35" viewBox="0 0 134 35" fill="none" xmlns="http://www.w3.org/2000/svg">
<path d="M36.2311 24.2738C36.1117 24.1163 35.99 23.9599 35.8671 23.8049C33.8457 21.2566 31.8398 18.6974 29.7893 16.1709C29.3819 15.669 29.3222 15.2588 29.5289 14.6596C30.5672 11.65 31.553 8.62374 32.5504 5.60145C32.7356 5.04033 32.7322 4.49954 32.2386 4.05819C31.7601 3.63027 31.2268 3.59652 30.6243 3.79832C29.6128 4.13731 28.5889 4.44146 27.5699 4.76013C25.4128 5.40982 23.2478 6.03663 21.1036 6.72333C20.5049 6.91534 20.1001 6.81843 19.6113 6.45584C16.8582 4.41279 14.0744 2.40785 11.3051 0.384765C10.8352 0.041777 10.3518 -0.134983 9.77427 0.123075C9.22659 0.367704 9.03458 0.797433 9.05726 1.34585C9.15894 3.79323 9.26099 6.24097 9.36304 8.68835C9.38836 9.54927 9.38118 10.4124 9.44998 11.27C9.49571 11.8395 9.28707 12.1716 8.79193 12.4939C6.07885 14.2611 3.3979 16.074 0.69692 17.8579C0.193085 18.1908 -0.0692277 18.5933 0.0158157 19.1914C0.101993 19.7965 0.492816 20.1035 1.06431 20.2828C2.49644 20.7318 3.94444 21.1437 5.3471 21.6671C7.61946 22.5146 9.70775 22.1426 11.7514 21.0109C14.5174 19.4785 16.4976 17.1059 18.7677 15.0418C19.1567 14.6883 18.852 14.6081 18.5647 14.4941C17.4936 14.0684 16.4247 13.6383 15.3558 13.2078C14.3935 12.8205 13.4323 12.4322 12.4711 12.0431C12.1819 11.9259 11.9586 11.7578 12.0493 11.4134C12.1305 11.1045 12.3997 11.0787 12.6692 11.0737C12.8143 11.0708 12.9594 11.0769 13.1046 11.0813C15.8301 11.1669 18.5602 11.1949 21.2797 11.3669C22.4212 11.4392 22.9076 10.8889 23.7301 10.1964C24.4396 9.6019 24.5133 9.38014 25.1033 8.99723C25.6487 8.65533 26.23 8.4234 26.8589 8.28983C27.6463 8.12288 28.0499 8.49489 27.8553 9.25564C27.6674 9.98989 27.3484 10.677 26.7845 11.2312C26.2376 11.7687 25.7084 12.3251 25.1324 12.8329C24.7563 13.1643 24.621 13.5203 24.6421 14.0059C24.7544 16.5905 24.8383 19.1758 24.932 21.7611C24.9324 22.5959 24.9479 22.2896 24.9264 22.8104C24.9158 23.0706 24.8704 23.3258 24.5741 23.4125C24.3031 23.4917 24.1413 23.3011 24.0124 23.1109C23.9183 22.9719 23.8454 22.8173 23.7792 22.6634C23.1378 21.1713 22.5006 19.6778 21.8607 18.185C21.1829 16.6043 21.1739 16.5967 19.9084 17.834C18.1025 19.5997 16.1325 21.2232 14.8009 23.3962C13.4961 25.5253 12.8007 27.6834 13.9437 30.1206C14.4638 31.2298 14.7843 32.4268 15.1717 33.5915C15.3913 34.251 15.6366 34.8527 16.4708 34.9805C17.3246 35.1112 17.7192 34.5627 18.1252 34.002C19.9424 31.4893 21.7756 28.9871 23.5755 26.4631C23.8579 26.0675 24.1549 25.9107 24.644 25.93C25.5587 25.9659 26.4757 25.9485 27.3919 25.9536C29.97 26.069 32.5482 26.1844 35.1263 26.3002C35.6611 26.3241 36.1226 26.1681 36.3657 25.693C36.6098 25.2135 36.5694 24.721 36.2311 24.2738Z" fill="#00CBDA"/>
<path d="M36.2311 24.2738C36.1117 24.1163 35.99 23.9599 35.8671 23.8049C33.8457 21.2566 31.8398 18.6974 29.7893 16.1709C29.3819 15.669 29.3222 15.2588 29.5289 14.6596C30.5672 11.65 31.553 8.62374 32.5504 5.60145C32.7356 5.04033 32.7322 4.49954 32.2386 4.05819C31.7601 3.63027 31.2268 3.59652 30.6243 3.79832C29.6128 4.13731 28.5889 4.44146 27.5699 4.76013C25.4128 5.40982 23.2478 6.03663 21.1036 6.72333C20.5049 6.91534 20.1001 6.81843 19.6113 6.45584C16.8582 4.41279 14.0744 2.40785 11.3051 0.384765C10.8352 0.041777 10.3518 -0.134983 9.77427 0.123075C9.22659 0.367704 9.03458 0.797433 9.05726 1.34585C9.15894 3.79323 9.26099 6.24097 9.36304 8.68835C9.38836 9.54927 9.38118 10.4124 9.44998 11.27C9.49571 11.8395 9.28707 12.1716 8.79193 12.4939C6.07885 14.2611 3.3979 16.074 0.69692 17.8579C0.193085 18.1908 -0.0692277 18.5933 0.0158157 19.1914C0.101993 19.7965 0.492816 20.1035 1.06431 20.2828C2.49644 20.7318 3.94444 21.1437 5.3471 21.6671C7.61946 22.5146 9.70775 22.1426 11.7514 21.0109C14.5174 19.4785 16.4976 17.1059 18.7677 15.0418C19.1567 14.6883 18.852 14.6081 18.5647 14.4941C17.4936 14.0684 16.4247 13.6383 15.3558 13.2078C14.3935 12.8205 13.4323 12.4322 12.4711 12.0431C12.1819 11.9259 11.9586 11.7578 12.0493 11.4134C12.1305 11.1045 12.3997 11.0787 12.6692 11.0737C12.8143 11.0708 12.9594 11.0769 13.1046 11.0813C15.8301 11.1669 18.5602 11.1949 21.2797 11.3669C22.4212 11.4392 22.9076 10.8889 23.7301 10.1964C24.4396 9.6019 24.5133 9.38014 25.1033 8.99723C25.6487 8.65533 26.23 8.4234 26.8589 8.28983C27.6463 8.12288 28.0499 8.49489 27.8553 9.25564C27.6674 9.98989 27.3484 10.677 26.7845 11.2312C26.2376 11.7687 25.7084 12.3251 25.1324 12.8329C24.7563 13.1643 24.621 13.5203 24.6421 14.0059C24.7544 16.5905 24.8383 19.1758 24.932 21.7611C24.9324 22.5959 24.9479 22.2896 24.9264 22.8104C24.9158 23.0706 24.8704 23.3258 24.5741 23.4125C24.3031 23.4917 24.1413 23.3011 24.0124 23.1109C23.9183 22.9719 23.8454 22.8173 23.7792 22.6634C23.1378 21.1713 22.5006 19.6778 21.8607 18.185C21.1829 16.6043 21.1739 16.5967 19.9084 17.834C18.1025 19.5997 16.1325 21.2232 14.8009 23.3962C13.4961 25.5253 12.8007 27.6834 13.9437 30.1206C14.4638 31.2298 14.7843 32.4268 15.1717 33.5915C15.3913 34.251 15.6366 34.8527 16.4708 34.9805C17.3246 35.1112 17.7192 34.5627 18.1252 34.002C19.9424 31.4893 21.7756 28.9871 23.5755 26.4631C23.8579 26.0675 24.1549 25.9107 24.644 25.93C25.5587 25.9659 26.4757 25.9485 27.3919 25.9536C29.97 26.069 32.5482 26.1844 35.1263 26.3002C35.6611 26.3241 36.1226 26.1681 36.3657 25.693C36.6098 25.2135 36.5694 24.721 36.2311 24.2738Z" fill="#00CBDA"/>
<path d="M57.9797 26.33C61.8197 26.33 64.6097 24.05 64.6097 20.6C64.6097 18.08 63.1697 16.49 59.8697 14.96L57.6497 13.94C55.4897 12.92 54.8897 12.35 54.8897 11.12C54.8897 9.65 56.0897 8.72 57.8897 8.72C59.3297 8.72 60.4997 9.38 61.4597 10.34C61.7597 10.61 62.0897 10.76 62.4197 10.76C63.1697 10.76 63.8897 10.1 63.8897 9.35C63.8897 8.99 63.7697 8.6 63.4097 8.21C62.2697 6.95 60.4697 5.84 57.8897 5.87C54.3197 5.87 51.6497 8.12 51.6497 11.24C51.6497 13.61 53.1197 15.26 56.2697 16.73L58.4597 17.75C60.6497 18.77 61.3697 19.43 61.3697 20.72C61.3697 22.37 60.0497 23.48 57.9497 23.48C55.9997 23.48 54.4397 22.46 53.3597 21.17C53.0897 20.87 52.7597 20.75 52.3997 20.75C51.6197 20.75 50.9297 21.35 50.9297 22.19C50.9297 22.58 51.1097 22.97 51.4097 23.3C52.9397 25.16 55.5197 26.33 57.9797 26.33ZM70.0575 3.17C69.1575 3.17 68.4675 3.86 68.4675 4.79V24.71C68.4675 25.64 69.1575 26.33 70.0575 26.33C70.9575 26.33 71.6175 25.67 71.6175 24.71V4.79C71.6175 3.83 70.9575 3.17 70.0575 3.17ZM80.9475 23.81L75.8175 17.84L80.2275 13.55C80.6175 13.16 80.8275 12.8 80.8275 12.38C80.8275 11.57 80.1675 10.94 79.3275 10.94C78.9075 10.94 78.4875 11.12 78.1875 11.42L72.8775 16.7C72.5175 17.09 72.3675 17.45 72.3675 17.87C72.3675 18.23 72.5175 18.59 72.8475 19.01L78.6375 25.7C79.0275 26.15 79.3875 26.33 79.8975 26.33C80.7075 26.33 81.3675 25.7 81.3675 24.86C81.3675 24.47 81.2475 24.14 80.9475 23.81ZM90.7177 10.94C86.3677 10.94 82.9477 14.3 82.9477 18.62C82.9477 22.91 86.3677 26.3 90.7177 26.33C95.0977 26.33 98.5477 22.91 98.5477 18.62C98.5477 14.33 95.0977 10.94 90.7177 10.94ZM90.7477 13.82C93.3277 13.85 95.3077 15.89 95.3077 18.65C95.3077 21.35 93.3277 23.42 90.7177 23.42C88.1077 23.42 86.1577 21.38 86.1577 18.65C86.1577 15.89 88.1077 13.85 90.7477 13.82ZM103.749 3.17C102.849 3.17 102.159 3.86 102.159 4.79V24.71C102.159 25.64 102.849 26.33 103.749 26.33C104.649 26.33 105.309 25.67 105.309 24.71V4.79C105.309 3.83 104.649 3.17 103.749 3.17ZM114.639 23.81L109.509 17.84L113.919 13.55C114.309 13.16 114.519 12.8 114.519 12.38C114.519 11.57 113.859 10.94 113.019 10.94C112.599 10.94 112.179 11.12 111.879 11.42L106.569 16.7C106.209 17.09 106.059 17.45 106.059 17.87C106.059 18.23 106.209 18.59 106.539 19.01L112.329 25.7C112.719 26.15 113.079 26.33 113.589 26.33C114.399 26.33 115.059 25.7 115.059 24.86C115.059 24.47 114.939 24.14 114.639 23.81ZM124.409 10.94C120.059 10.94 116.639 14.3 116.639 18.62C116.639 22.91 120.059 26.3 124.409 26.33C128.789 26.33 132.239 22.91 132.239 18.62C132.239 14.33 128.789 10.94 124.409 10.94ZM124.439 13.82C127.019 13.85 128.999 15.89 128.999 18.65C128.999 21.35 127.019 23.42 124.409 23.42C121.799 23.42 119.849 21.38 119.849 18.65C119.849 15.89 121.799 13.85 124.439 13.82Z" fill="black"/>
</svg>
