<svg width="15" height="15" viewBox="0 0 15 15" fill="none" xmlns="http://www.w3.org/2000/svg">
<path fill-rule="evenodd" clip-rule="evenodd" d="M10.9761 13.1257C10.8774 13.1257 10.778 13.1026 10.6867 13.0551L7.49986 11.3901L4.31361 13.0551C4.10236 13.1644 3.84736 13.1457 3.65611 13.0057C3.46361 12.8657 3.36798 12.6288 3.40861 12.3944L4.01548 8.87693L1.44048 6.38631C1.26923 6.22068 1.20736 5.97193 1.28048 5.74443C1.35361 5.51818 1.54923 5.35256 1.78548 5.31881L5.34798 4.80131L6.94048 1.59756C7.15173 1.17256 7.84861 1.17256 8.05986 1.59756L9.65236 4.80131L13.2149 5.31881C13.4511 5.35256 13.6467 5.51818 13.7199 5.74443C13.793 5.97193 13.7311 6.22068 13.5599 6.38631L10.9849 8.87693L11.5917 12.3944C11.6324 12.6288 11.5361 12.8657 11.3442 13.0057C11.2355 13.0857 11.1061 13.1257 10.9761 13.1257Z" fill="#343434"/>
<mask id="mask0" mask-type="alpha" maskUnits="userSpaceOnUse" x="1" y="1" width="13" height="13">
<path fill-rule="evenodd" clip-rule="evenodd" d="M10.9761 13.1257C10.8774 13.1257 10.778 13.1026 10.6867 13.0551L7.49986 11.3901L4.31361 13.0551C4.10236 13.1644 3.84736 13.1457 3.65611 13.0057C3.46361 12.8657 3.36798 12.6288 3.40861 12.3944L4.01548 8.87693L1.44048 6.38631C1.26923 6.22068 1.20736 5.97193 1.28048 5.74443C1.35361 5.51818 1.54923 5.35256 1.78548 5.31881L5.34798 4.80131L6.94048 1.59756C7.15173 1.17256 7.84861 1.17256 8.05986 1.59756L9.65236 4.80131L13.2149 5.31881C13.4511 5.35256 13.6467 5.51818 13.7199 5.74443C13.793 5.97193 13.7311 6.22068 13.5599 6.38631L10.9849 8.87693L11.5917 12.3944C11.6324 12.6288 11.5361 12.8657 11.3442 13.0057C11.2355 13.0857 11.1061 13.1257 10.9761 13.1257Z" fill="white"/>
</mask>
<g mask="url(#mask0)">
<rect width="15" height="15" fill="white"/>
</g>
</svg>
