<svg width="71" height="90" viewBox="0 0 71 90" fill="none" xmlns="http://www.w3.org/2000/svg">
<path d="M69.0388 39.6661C69.7735 39.6661 70.3702 39.0694 70.3702 38.334V17.4435C70.3702 15.7551 68.9962 14.3811 67.3071 14.3811H62.0837V10.2544C62.0837 8.56384 60.7111 7.19124 59.0206 7.19124H53.6263V3.06313C53.6263 1.37466 52.2517 0 50.5632 0H13.8023C13.0669 0 12.4702 0.596695 12.4702 1.33141C12.4702 2.0668 13.0669 2.6635 13.8023 2.6635H50.5632C50.7829 2.6635 50.9628 2.84271 50.9628 3.06313V72.5565C50.9628 72.7762 50.7829 72.9554 50.5632 72.9554C47.2584 72.9554 4.75914 72.9554 3.06313 72.9554C2.84271 72.9554 2.6635 72.7762 2.6635 72.5565V3.06313C2.6635 2.84271 2.84271 2.6635 3.06313 2.6635H8.47527C9.20998 2.6635 9.80667 2.0668 9.80667 1.33141C9.80667 0.596695 9.20998 0 8.47527 0H3.06313C1.37466 0 0 1.37466 0 3.06313V72.5565C0 74.2449 1.37466 75.6189 3.06313 75.6189H8.45947V79.7456C8.45947 81.4362 9.83139 82.8088 11.5205 82.8088H16.7445V86.9369C16.7445 88.6253 18.1185 90 19.807 90H67.3071C68.9962 90 70.3702 88.6253 70.3702 86.9369V43.661C70.3702 42.9263 69.7735 42.3296 69.0388 42.3296C68.302 42.3296 67.7067 42.9263 67.7067 43.661V86.9369C67.7067 87.1573 67.5275 87.3365 67.3071 87.3365H19.807C19.5872 87.3365 19.408 87.1573 19.408 86.9369V82.8088H59.0206C60.7111 82.8088 62.0837 81.4362 62.0837 79.7456V61.3284C62.0837 60.5937 61.4884 59.997 60.7516 59.997C60.0163 59.997 59.4202 60.5937 59.4202 61.3284V79.7456C59.4202 79.966 59.2424 80.1453 59.0206 80.1453C57.7538 80.1453 12.8011 80.1453 11.5205 80.1453C11.3001 80.1453 11.1223 79.966 11.1223 79.7456V75.6189H50.5632C52.2517 75.6189 53.6263 74.2449 53.6263 72.5565C53.6263 70.6119 53.6263 12.933 53.6263 9.85474H59.0206C59.2424 9.85474 59.4202 10.034 59.4202 10.2544V17.0446V56.0021C59.4202 56.7389 60.0163 57.3335 60.7516 57.3335C61.4884 57.3335 62.0837 56.7389 62.0837 56.0021V17.0446H67.3071C67.5275 17.0446 67.7067 17.2238 67.7067 17.4435V38.334C67.7067 39.0694 68.302 39.6661 69.0388 39.6661Z" fill="black"/>
<path d="M34.3275 13.1836C34.3275 9.04042 30.9567 5.66968 26.8135 5.66968C22.6703 5.66968 19.2996 9.04042 19.2996 13.1836C19.2996 17.3269 22.6703 20.6969 26.8135 20.6969C30.9567 20.6969 34.3275 17.3269 34.3275 13.1836ZM21.9631 13.1836C21.9631 10.5085 24.139 8.33318 26.8135 8.33318C29.488 8.33318 31.664 10.5092 31.664 13.1836C31.664 15.8581 29.488 18.0341 26.8135 18.0341C24.139 18.0341 21.9631 15.8581 21.9631 13.1836Z" fill="#00CBDA"/>
<path d="M44.9849 14.5151C45.721 14.5151 46.317 13.9191 46.317 13.1837C46.317 12.4476 45.721 11.8516 44.9849 11.8516H38.7406C38.0052 11.8516 37.4092 12.4476 37.4092 13.1837C37.4092 13.9191 38.0052 14.5151 38.7406 14.5151H44.9849Z" fill="black"/>
<path d="M14.8865 11.8516H8.64215C7.90675 11.8516 7.31006 12.4476 7.31006 13.1837C7.31006 13.9191 7.90675 14.5151 8.64215 14.5151H14.8865C15.6219 14.5151 16.2179 13.9191 16.2179 13.1837C16.2179 12.4476 15.6219 11.8516 14.8865 11.8516Z" fill="black"/>
<path d="M10.3889 25.8233C10.3889 26.5587 10.9849 27.1547 11.7203 27.1547H41.9066C42.642 27.1547 43.238 26.5587 43.238 25.8233C43.238 25.0872 42.642 24.4912 41.9066 24.4912H11.7203C10.9849 24.4912 10.3889 25.0872 10.3889 25.8233Z" fill="black"/>
<path d="M41.9059 30.9492H11.7203C10.9849 30.9492 10.3889 31.5452 10.3889 32.2806C10.3889 33.016 10.9849 33.612 11.7203 33.612H41.9059C42.642 33.612 43.238 33.016 43.238 32.2806C43.238 31.5452 42.642 30.9492 41.9059 30.9492Z" fill="#00CBDA"/>
<path d="M41.9059 37.4062H11.7203C10.9849 37.4062 10.3889 38.0023 10.3889 38.7377C10.3889 39.4737 10.9849 40.0697 11.7203 40.0697H41.9059C42.642 40.0697 43.238 39.4737 43.238 38.7377C43.238 38.0023 42.642 37.4062 41.9059 37.4062Z" fill="black"/>
<path d="M41.9059 43.8635H11.7203C10.9849 43.8635 10.3889 44.4595 10.3889 45.1956C10.3889 45.931 10.9849 46.527 11.7203 46.527H41.9059C42.642 46.527 43.238 45.931 43.238 45.1956C43.238 44.4595 42.642 43.8635 41.9059 43.8635Z" fill="#00CBDA"/>
<path d="M41.9059 50.3215H11.7203C10.9849 50.3215 10.3889 50.9175 10.3889 51.6536C10.3889 52.389 10.9849 52.985 11.7203 52.985H41.9059C42.642 52.985 43.238 52.389 43.238 51.6536C43.238 50.9175 42.642 50.3215 41.9059 50.3215Z" fill="black"/>
<path d="M42.4843 57.0809C41.9151 56.6147 41.0767 56.6978 40.6098 57.2663L34.2528 65.0192L31.3058 62.1312C30.7805 61.6169 29.9373 61.6251 29.4223 62.1504C28.908 62.6757 28.9162 63.5189 29.4415 64.0332L32.7415 67.268C33.6685 68.1764 35.1743 68.0947 35.9983 67.0908L42.6697 58.9555C43.136 58.3869 43.0529 57.5471 42.4843 57.0809Z" fill="#00CBDA"/>
</svg>
