<svg width="78" height="90" viewBox="0 0 78 90" fill="none" xmlns="http://www.w3.org/2000/svg">
<path d="M55.875 82.5H48C47.7531 82.5 47.5099 82.561 47.2922 82.6775C47.0745 82.794 46.8889 82.9625 46.752 83.168L44.1973 87H15V85.8887L22.3112 72.7285C22.435 72.5056 22.5 72.2549 22.5 72V63H19.5V71.6113L12.1888 84.7715C12.065 84.9944 12 85.2451 12 85.5V88.5C12 88.8978 12.158 89.2794 12.4393 89.5607C12.7206 89.842 13.1022 90 13.5 90H45C45.2469 90 45.4901 89.939 45.7078 89.8225C45.9255 89.706 46.1111 89.5375 46.248 89.332L48.8027 85.5H55.875C56.8558 85.4986 57.8257 85.2955 58.7246 84.9031C59.6235 84.5107 60.4319 83.9375 61.0997 83.2192L58.9003 81.1792C58.5158 81.5978 58.048 81.9315 57.5271 82.1589C57.0061 82.3863 56.4434 82.5025 55.875 82.5Z" fill="black"/>
<path d="M75 74.25C74.9993 74.8465 74.7621 75.4184 74.3403 75.8403C73.9184 76.2621 73.3465 76.4993 72.75 76.5H38.25C37.6535 76.4993 37.0816 76.2621 36.6597 75.8403C36.2379 75.4184 36.0007 74.8465 36 74.25V52.5H39C41.3861 52.4973 43.6738 51.5483 45.361 49.861C47.0483 48.1738 47.9973 45.8861 48 43.5V37.5C48 37.1022 47.842 36.7206 47.5607 36.4393C47.2794 36.158 46.8978 36 46.5 36H31.0543C29.5586 35.9987 28.1004 36.4687 26.887 37.3432C25.6736 38.2178 24.7666 39.4525 24.2948 40.8719L19.5769 55.0256C19.526 55.1786 19.5 55.3388 19.5 55.5V60H22.5V55.7434L27.141 41.8207C27.4141 40.9989 27.9391 40.284 28.6416 39.7777C29.3441 39.2713 30.1883 38.9992 31.0543 39H45V43.5C44.9982 45.0907 44.3655 46.6158 43.2407 47.7406C42.1158 48.8655 40.5907 49.4982 39 49.5H33V74.25C33.0016 75.6419 33.5552 76.9764 34.5394 77.9606C35.5236 78.9448 36.8581 79.4984 38.25 79.5H72.75C74.1419 79.4984 75.4764 78.9448 76.4606 77.9606C77.4448 76.9764 77.9984 75.6419 78 74.25V12H75V74.25Z" fill="black"/>
<path d="M72.75 0H38.25C36.8581 0.00155831 35.5236 0.555182 34.5394 1.53941C33.5552 2.52364 33.0016 3.85809 33 5.25V33H36V5.25C36.0007 4.65347 36.2379 4.08156 36.6597 3.65974C37.0816 3.23793 37.6535 3.00066 38.25 3H72.75C73.3465 3.00066 73.9184 3.23793 74.3403 3.65974C74.7621 4.08156 74.9993 4.65347 75 5.25V9H78V5.25C77.9984 3.85809 77.4448 2.52364 76.4606 1.53941C75.4764 0.555182 74.1419 0.00155831 72.75 0Z" fill="black"/>
<path d="M66 19.5H69V22.5H72V18C72 17.6022 71.842 17.2206 71.5607 16.9393C71.2794 16.658 70.8978 16.5 70.5 16.5H66V19.5Z" fill="black"/>
<path d="M72 51V46.5H69V49.5H66V52.5H70.5C70.8978 52.5 71.2794 52.342 71.5607 52.0607C71.842 51.7794 72 51.3978 72 51Z" fill="black"/>
<path d="M39 18V22.5H42V19.5H45V16.5H40.5C40.1022 16.5 39.7206 16.658 39.4393 16.9393C39.158 17.2206 39 17.6022 39 18Z" fill="black"/>
<path d="M58.5 22.5C58.1022 22.5 57.7206 22.658 57.4393 22.9393C57.158 23.2206 57 23.6022 57 24V31.5C57 31.8978 57.158 32.2794 57.4393 32.5607C57.7206 32.842 58.1022 33 58.5 33H66C66.3978 33 66.7794 32.842 67.0607 32.5607C67.342 32.2794 67.5 31.8978 67.5 31.5V24C67.5 23.6022 67.342 23.2206 67.0607 22.9393C66.7794 22.658 66.3978 22.5 66 22.5H58.5ZM64.5 30H60V25.5H64.5V30Z" fill="black"/>
<path d="M43.5 24V31.5C43.5 31.8978 43.658 32.2794 43.9393 32.5607C44.2206 32.842 44.6022 33 45 33H52.5C52.8978 33 53.2794 32.842 53.5607 32.5607C53.842 32.2794 54 31.8978 54 31.5V24C54 23.6022 53.842 23.2206 53.5607 22.9393C53.2794 22.658 52.8978 22.5 52.5 22.5H45C44.6022 22.5 44.2206 22.658 43.9393 22.9393C43.658 23.2206 43.5 23.6022 43.5 24ZM46.5 25.5H51V30H46.5V25.5Z" fill="#00CBDA"/>
<path d="M67.5 45V37.5C67.5 37.1022 67.342 36.7206 67.0607 36.4393C66.7794 36.158 66.3978 36 66 36H58.5C58.1022 36 57.7206 36.158 57.4393 36.4393C57.158 36.7206 57 37.1022 57 37.5V45C57 45.3978 57.158 45.7794 57.4393 46.0607C57.7206 46.342 58.1022 46.5 58.5 46.5H66C66.3978 46.5 66.7794 46.342 67.0607 46.0607C67.342 45.7794 67.5 45.3978 67.5 45ZM64.5 43.5H60V39H64.5V43.5Z" fill="#00CBDA"/>
<path d="M54 45V37.5C54 37.1022 53.842 36.7206 53.5607 36.4393C53.2794 36.158 52.8978 36 52.5 36H51V46.5H52.5C52.8978 46.5 53.2794 46.342 53.5607 46.0607C53.842 45.7794 54 45.3978 54 45Z" fill="#00CBDA"/>
<path d="M48 6H63V9H48V6Z" fill="#00CBDA"/>
<path d="M42 6H45V9H42V6Z" fill="black"/>
<path d="M66 6H69V9H66V6Z" fill="black"/>
<path d="M45 63C45 65.0767 45.6158 67.1068 46.7696 68.8335C47.9233 70.5602 49.5632 71.906 51.4818 72.7007C53.4004 73.4954 55.5116 73.7034 57.5484 73.2982C59.5852 72.8931 61.4562 71.8931 62.9246 70.4246C64.3931 68.9562 65.3931 67.0852 65.7982 65.0484C66.2034 63.0116 65.9954 60.9004 65.2007 58.9818C64.406 57.0632 63.0602 55.4233 61.3335 54.2696C59.6068 53.1158 57.5767 52.5 55.5 52.5C52.7162 52.5031 50.0473 53.6104 48.0788 55.5788C46.1104 57.5473 45.0031 60.2162 45 63ZM55.5 55.5C56.9834 55.5 58.4334 55.9399 59.6668 56.764C60.9001 57.5881 61.8614 58.7594 62.4291 60.1299C62.9967 61.5003 63.1453 63.0083 62.8559 64.4632C62.5665 65.918 61.8522 67.2544 60.8033 68.3033C59.7544 69.3522 58.418 70.0665 56.9632 70.3559C55.5083 70.6453 54.0003 70.4967 52.6299 69.9291C51.2594 69.3614 50.0881 68.4001 49.264 67.1668C48.4399 65.9334 48 64.4834 48 63C48.0023 61.0116 48.7932 59.1052 50.1992 57.6992C51.6052 56.2932 53.5116 55.5023 55.5 55.5Z" fill="black"/>
<path d="M52.9395 67.0607C53.0787 67.2 53.2441 67.3105 53.4261 67.3859C53.6081 67.4613 53.8032 67.5001 54.0002 67.5001C54.1972 67.5001 54.3922 67.4613 54.5742 67.3859C54.7562 67.3105 54.9216 67.2 55.0609 67.0607L61.0609 61.0607L58.9395 58.9395L54.0002 63.8788L52.0609 61.9395L49.9395 64.0607L52.9395 67.0607Z" fill="#00CBDA"/>
<path d="M14.9932 40.4998C15.3101 40.4999 15.6189 40.3995 15.8752 40.2131L18.9908 37.9481C24.139 34.247 27.6552 28.6972 28.8028 22.4614C28.8049 22.4497 28.8069 22.4381 28.8087 22.4266L29.9441 15.2331C29.9956 14.9072 29.9381 14.5735 29.7807 14.2835C29.6233 13.9936 29.3746 13.7636 29.0733 13.6293L15.592 7.61784C15.3998 7.5321 15.1917 7.48779 14.9812 7.48779C14.7707 7.48779 14.5626 7.5321 14.3704 7.61784L0.889116 13.6293C0.58787 13.7636 0.3393 13.9935 0.181875 14.2833C0.0244502 14.5732 -0.0330508 14.9068 0.0182717 15.2326L1.14198 22.367C1.14385 22.3787 1.14573 22.3904 1.14785 22.402C1.36957 23.6202 1.68402 24.8197 2.08846 25.99L4.92367 25.0094C4.57119 23.9894 4.29672 22.9442 4.10262 21.8826L3.16053 15.9012L14.9811 10.6303L26.8014 15.9011L25.848 21.9412C24.8341 27.4108 21.745 32.2767 17.2267 35.5216L14.9991 37.1411L12.6127 35.3836C9.8988 33.3895 7.67884 30.7992 6.12376 27.8121L3.45775 29.1876C5.22494 32.5847 7.74834 35.5309 10.8336 37.7991L14.1036 40.2076C14.3612 40.3976 14.673 40.5 14.9932 40.4998Z" fill="black"/>
<path d="M13.4632 28.4994C13.6602 28.4996 13.8553 28.4609 14.0374 28.3855C14.2194 28.3101 14.3847 28.1995 14.5239 28.06L23.5239 19.06L21.4024 16.9387L13.4632 24.8781L10.0239 21.4387L7.90234 23.56L12.4023 28.06C12.5415 28.1995 12.7069 28.3101 12.8889 28.3855C13.071 28.4609 13.2661 28.4996 13.4632 28.4994Z" fill="#00CBDA"/>
</svg>
