<svg width="74" height="90" viewBox="0 0 74 90" fill="none" xmlns="http://www.w3.org/2000/svg">
<path d="M59.7679 54.3571V18.285C59.7679 16.5896 58.3885 15.2102 56.6931 15.2102H11.9205C10.2251 15.2102 8.8457 16.5896 8.8457 18.285V54.357C8.8457 56.0524 10.2251 57.4317 11.9205 57.4317H56.6931C58.3885 57.4319 59.7679 56.0526 59.7679 54.3571ZM11.4812 54.3571V40.274L18.459 33.296C18.5708 33.1841 18.7016 33.1674 18.7696 33.1674C18.8377 33.1674 18.9681 33.1841 19.0802 33.296L20.5818 34.7976C21.0961 35.3122 21.9305 35.3121 22.4454 34.7976C22.9599 34.2829 22.9599 33.4486 22.4452 32.9339L20.9439 31.4326C20.3633 30.8518 19.5911 30.5319 18.7698 30.5319C17.9484 30.5319 17.1763 30.8516 16.5956 31.4324L11.4815 36.5466V18.285C11.4815 18.0428 11.6786 17.8457 11.9208 17.8457H56.6935C56.9357 17.8457 57.1327 18.0428 57.1327 18.285V54.357C57.1327 54.5992 56.9357 54.7962 56.6935 54.7962H55.408L38.9898 38.3779C37.7908 37.1794 35.8403 37.1794 34.6413 38.3781L31.2658 41.7538L26.6446 37.1326C26.1301 36.618 25.2959 36.618 24.7808 37.1326C24.2663 37.6472 24.2663 38.4816 24.7808 38.9963L29.7127 43.9282C30.1276 44.3429 30.6792 44.5714 31.2658 44.5714C31.8524 44.5714 32.4041 44.3429 32.8188 43.928L36.5051 40.2417C36.6763 40.0705 36.9549 40.0705 37.1263 40.2417L51.6807 54.7962H11.9205C11.6782 54.7962 11.4812 54.5992 11.4812 54.3571Z" fill="#00CBDA"/>
<path d="M68.6128 64.4067V47.5305C68.6128 46.8027 68.0229 46.2126 67.295 46.2126C66.5671 46.2126 65.9772 46.8026 65.9772 47.5305V62.4197C63.7693 61.1122 61.1964 60.3585 58.4497 60.3585C50.9055 60.3585 44.6642 66.0259 43.7489 73.3261H3.95333C3.22665 73.3261 2.63549 72.7349 2.63549 72.0082V3.95333C2.63549 3.22665 3.22665 2.63549 3.95333 2.63549H64.6593C65.386 2.63549 65.9772 3.22665 65.9772 3.95333V40.9655C65.9772 41.6933 66.5671 42.2834 67.295 42.2834C68.0229 42.2834 68.6128 41.6935 68.6128 40.9655V3.95333C68.6128 1.77346 66.8394 0 64.6595 0H3.95333C1.77346 0 0 1.77346 0 3.95333V72.0082C0 74.1881 1.77346 75.9616 3.95333 75.9616H43.6517C43.793 78.6793 44.6677 81.2832 46.2072 83.5349C46.618 84.1357 47.4382 84.2896 48.0387 83.8791C48.6395 83.4683 48.7936 82.6483 48.3828 82.0475C46.997 80.0203 46.2645 77.6454 46.2645 75.1793C46.2645 68.4603 51.7308 62.9941 58.4497 62.9941C65.1686 62.9941 70.6348 68.4604 70.6348 75.1793C70.6348 81.8982 65.1686 87.3647 58.4497 87.3647C56.4466 87.3647 54.4612 86.8686 52.7079 85.9301C52.0662 85.5868 51.2676 85.8285 50.9243 86.47C50.5808 87.1116 50.8225 87.9101 51.4643 88.2536C53.5986 89.3962 56.0142 90 58.4497 90C66.6219 90 73.2705 83.3514 73.2705 75.1792C73.2705 70.9384 71.4774 67.1108 68.6128 64.4067Z" fill="black"/>
<path d="M58.45 68.3984C57.722 68.3984 57.1321 68.9884 57.1321 69.7163V73.8997H52.9487C52.2208 73.8997 51.6309 74.4896 51.6309 75.2175C51.6309 75.9454 52.2208 76.5354 52.9487 76.5354H57.1321V80.7188C57.1321 81.4465 57.722 82.0366 58.45 82.0366C59.1779 82.0366 59.7678 81.4467 59.7678 80.7188V76.5354H63.9512C64.6791 76.5354 65.2691 75.9454 65.2691 75.2175C65.2691 74.4896 64.6791 73.8997 63.9512 73.8997H59.7678V69.7163C59.7676 68.9885 59.1777 68.3984 58.45 68.3984Z" fill="#00CBDA"/>
<path d="M13.8463 63.7906C13.9472 62.7762 13.2067 61.8721 12.1924 61.7712C11.178 61.6702 10.2739 62.4107 10.173 63.4251C10.0721 64.4394 10.8125 65.3435 11.8269 65.4445C12.8412 65.5454 13.7454 64.8049 13.8463 63.7906Z" fill="black"/>
<path d="M20.3717 63.7915C20.4726 62.7772 19.7321 61.8731 18.7178 61.7721C17.7034 61.6712 16.7993 62.4117 16.6984 63.426C16.5974 64.4404 17.3379 65.3445 18.3523 65.4454C19.3666 65.5464 20.2708 64.8059 20.3717 63.7915Z" fill="#00CBDA"/>
<path d="M26.899 63.792C27 62.7777 26.2595 61.8736 25.2451 61.7726C24.2308 61.6717 23.3266 62.4122 23.2257 63.4265C23.1248 64.4409 23.8653 65.345 24.8796 65.4459C25.894 65.5469 26.7981 64.8064 26.899 63.792Z" fill="#00CBDA"/>
<path d="M39.3754 10.954C40.1033 10.954 40.6933 10.3641 40.6933 9.63619C40.6933 8.90828 40.1033 8.31836 39.3754 8.31836H33.6655C32.9376 8.31836 32.3477 8.90828 32.3477 9.63619C32.3477 10.3641 32.9376 10.954 33.6655 10.954H39.3754Z" fill="black"/>
<path d="M26.9008 10.954C27.6287 10.954 28.2186 10.3641 28.2186 9.63619C28.2186 8.90828 27.6287 8.31836 26.9008 8.31836H11.3061C10.5782 8.31836 9.98828 8.90828 9.98828 9.63619C9.98828 10.3641 10.5782 10.954 11.3061 10.954H26.9008Z" fill="#00CBDA"/>
<path d="M45.4701 33.6936C48.0437 33.6936 50.1374 31.5999 50.1374 29.0262C50.1374 26.4526 48.0437 24.3589 45.4701 24.3589C42.8965 24.3589 40.8027 26.4526 40.8027 29.0262C40.8027 31.5999 42.8965 33.6936 45.4701 33.6936ZM45.4701 26.9946C46.5903 26.9946 47.5018 27.906 47.5018 29.0262C47.5018 30.1465 46.5903 31.0579 45.4701 31.0579C44.3498 31.0579 43.4384 30.1465 43.4384 29.0262C43.4382 27.9062 44.3498 26.9946 45.4701 26.9946Z" fill="black"/>
</svg>
