<svg width="65" height="65" viewBox="0 0 65 65" fill="none" xmlns="http://www.w3.org/2000/svg">
<path d="M32.4996 15.1841C29.5775 15.1841 27.2002 17.5614 27.2002 20.4835C27.2002 23.4056 29.5775 25.7829 32.4996 25.7829C35.4217 25.7829 37.799 23.4056 37.799 20.4835C37.799 17.5614 35.4217 15.1841 32.4996 15.1841ZM32.4996 23.2437C30.9776 23.2437 29.7393 22.0054 29.7393 20.4834C29.7393 18.9613 30.9776 17.723 32.4996 17.723C34.0216 17.723 35.2599 18.9613 35.2599 20.4834C35.2599 22.0054 34.0216 23.2437 32.4996 23.2437Z" fill="#00CBDA"/>
<path d="M32.5 2.53906C32.8339 2.53906 33.1614 2.40322 33.3976 2.16709C33.6337 1.93096 33.7695 1.60342 33.7695 1.26953C33.7695 0.935645 33.6337 0.608105 33.3976 0.371973C33.1614 0.13584 32.8339 0 32.5 0C32.1661 0 31.8386 0.13584 31.6024 0.371973C31.3663 0.608105 31.2305 0.935645 31.2305 1.26953C31.2305 1.60342 31.3663 1.93096 31.6024 2.16709C31.8386 2.40322 32.1661 2.53906 32.5 2.53906Z" fill="#00CBDA"/>
<path d="M39.2997 14.9532C39.6246 14.9532 39.9496 14.8291 40.1974 14.5813L43.7917 10.987C44.2874 10.4913 44.2875 9.68739 43.7918 9.19164C43.2959 8.69589 42.4922 8.69589 41.9964 9.19164L38.4021 12.7859C37.9064 13.2817 37.9063 14.0856 38.4021 14.5813C38.6499 14.8292 38.9748 14.9532 39.2997 14.9532Z" fill="black"/>
<path d="M45.2387 34.4912C45.5636 34.4912 45.8886 34.3672 46.1364 34.1194C46.6322 33.6236 46.6322 32.8197 46.1364 32.324L40.1975 26.385C39.7017 25.8892 38.8978 25.8892 38.4021 26.3851C37.9063 26.8809 37.9063 27.6847 38.4021 28.1805L44.3411 34.1195C44.589 34.3673 44.9139 34.4912 45.2387 34.4912Z" fill="black"/>
<path d="M32.5 28.8296C31.7988 28.8296 31.2305 29.398 31.2305 30.0991V35.6212C31.2305 36.3223 31.7988 36.8907 32.5 36.8907C33.2012 36.8907 33.7695 36.3223 33.7695 35.6212V30.0991C33.7695 29.398 33.2012 28.8296 32.5 28.8296Z" fill="black"/>
<path d="M13.2874 21.7534C13.6213 21.7534 13.9476 21.6176 14.185 21.3814C14.4211 21.144 14.5569 20.8178 14.5569 20.4826C14.5569 20.1487 14.4211 19.8225 14.185 19.5851C13.9488 19.3489 13.6213 19.2144 13.2874 19.2144C12.9522 19.2144 12.6247 19.3489 12.3886 19.5851C12.1524 19.8225 12.0166 20.1487 12.0166 20.4826C12.0166 20.8178 12.1524 21.144 12.3886 21.3814C12.626 21.6176 12.9522 21.7534 13.2874 21.7534Z" fill="#00CBDA"/>
<path d="M24.8035 26.385L19.5866 31.6019C19.0909 32.0977 19.0909 32.9015 19.5868 33.3973C19.8347 33.6452 20.1596 33.7691 20.4845 33.7691C20.8093 33.7691 21.1343 33.6451 21.3821 33.3973L26.599 28.1804C27.0948 27.6847 27.0948 26.8808 26.5989 26.385C26.1031 25.8892 25.2994 25.8893 24.8035 26.385Z" fill="black"/>
<path d="M18.3652 19.2139C17.6641 19.2139 17.0957 19.7822 17.0957 20.4834C17.0957 21.1846 17.6641 21.7529 18.3652 21.7529H22.8851C23.5863 21.7529 24.1547 21.1846 24.1547 20.4834C24.1547 19.7822 23.5863 19.2139 22.8851 19.2139H18.3652Z" fill="black"/>
<path d="M51.7126 19.2144C51.3787 19.2144 51.0524 19.3489 50.815 19.5851C50.5789 19.8225 50.4443 20.1487 50.4443 20.4826C50.4443 20.8178 50.5789 21.1453 50.815 21.3814C51.0524 21.6176 51.3787 21.7534 51.7126 21.7534C52.0478 21.7534 52.374 21.6176 52.6114 21.3814C52.8476 21.1453 52.9834 20.8178 52.9834 20.4826C52.9834 20.1487 52.8476 19.8225 52.6114 19.5851C52.3753 19.3489 52.0478 19.2144 51.7126 19.2144Z" fill="black"/>
<path d="M42.1152 19.2139C41.4141 19.2139 40.8457 19.7822 40.8457 20.4834C40.8457 21.1846 41.4141 21.7529 42.1152 21.7529H45.9233C46.6245 21.7529 47.1928 21.1846 47.1928 20.4834C47.1928 19.7822 46.6245 19.2139 45.9233 19.2139H42.1152Z" fill="#00CBDA"/>
<path d="M32.5 46.7969C31.7988 46.7969 31.2305 47.3652 31.2305 48.0664V63.7305C31.2305 64.4317 31.7988 65 32.5 65C33.2012 65 33.7695 64.4317 33.7695 63.7305V48.0664C33.7695 47.3652 33.2012 46.7969 32.5 46.7969Z" fill="#00CBDA"/>
<path d="M64.6405 37.9423L62.2277 35.4599L62.7204 32.0333C62.7875 31.5672 62.5909 31.1023 62.2101 30.8255C61.8291 30.5487 61.3262 30.5055 60.9037 30.7132L57.7972 32.2407L54.6907 30.7132C54.2682 30.5055 53.7653 30.5488 53.3843 30.8255C53.0033 31.1022 52.8069 31.5671 52.874 32.0333L53.3667 35.4599L50.9539 37.9423C50.6258 38.28 50.5114 38.7716 50.6569 39.2195C50.8024 39.6674 51.1838 39.9978 51.6479 40.0782L55.0591 40.6684L56.6746 43.7302C56.8942 44.1466 57.3265 44.4074 57.7973 44.4074C58.2682 44.4074 58.7005 44.1468 58.9201 43.7302L60.5356 40.6684L63.9468 40.0782C64.4108 39.9979 64.7922 39.6674 64.9378 39.2195C65.083 38.7717 64.9688 38.28 64.6405 37.9423ZM59.4874 38.2729C59.0996 38.3401 58.7648 38.5833 58.5811 38.9314L57.7972 40.4171L57.0133 38.9314C56.8296 38.5833 56.4948 38.3401 56.1069 38.2729L54.4517 37.9865L55.6225 36.782C55.8968 36.4996 56.0248 36.1061 55.9687 35.7164L55.7296 34.0536L57.2371 34.7948C57.5904 34.9684 58.0041 34.9684 58.3574 34.7948L59.8649 34.0536L59.6258 35.7164C59.5698 36.1061 59.6977 36.4996 59.972 36.782L61.1428 37.9865L59.4874 38.2729Z" fill="black"/>
<path d="M49.2427 44.2551C45.3366 48.161 43.1855 53.3544 43.1855 58.8784V63.7306C43.1855 64.4317 43.7539 65.0001 44.4551 65.0001C45.1562 65.0001 45.7246 64.4317 45.7246 63.7306V58.8784C45.7246 54.0326 47.6116 49.4769 51.0381 46.0504C51.5339 45.5547 51.5339 44.7508 51.0381 44.2551C50.5424 43.7593 49.7386 43.7594 49.2427 44.2551Z" fill="black"/>
<path d="M14.343 34.5651C14.4885 34.1173 14.3742 33.6257 14.0459 33.288L11.6332 30.8056L12.1259 27.379C12.1929 26.9129 11.9964 26.448 11.6155 26.1711C11.2345 25.8944 10.7318 25.8512 10.309 26.059L7.20249 27.5865L4.09595 26.059C3.67345 25.8512 3.17059 25.8945 2.78947 26.1711C2.40861 26.4479 2.21209 26.9128 2.27912 27.379L2.77183 30.8056L0.359209 33.288C0.0310349 33.6257 -0.0833499 34.1173 0.0621384 34.5651C0.207627 35.0129 0.589121 35.3435 1.05313 35.4237L4.46437 36.0139L6.07984 39.0758C6.29947 39.4922 6.73175 39.7528 7.20262 39.7528C7.67349 39.7528 8.10576 39.4922 8.32539 39.0758L9.94087 36.0139L13.3521 35.4237C13.816 35.3435 14.1974 35.013 14.343 34.5651ZM8.89287 33.6186C8.50503 33.6856 8.17025 33.929 7.98655 34.2771L7.20262 35.7628L6.41868 34.2771C6.23498 33.929 5.9002 33.6856 5.51236 33.6186L3.85715 33.3322L5.02791 32.1275C5.30226 31.8452 5.4301 31.4516 5.37411 31.062L5.13506 29.3992L6.6425 30.1404C6.99581 30.3141 7.40955 30.3141 7.76286 30.1404L9.2703 29.3992L9.03125 31.062C8.97526 31.4516 9.1031 31.8452 9.37745 32.1275L10.5482 33.3322L8.89287 33.6186Z" fill="#00CBDA"/>
<path d="M13.9626 39.6008C13.4669 40.0966 13.4669 40.9004 13.9626 41.3963C17.3891 44.8228 19.2761 49.3785 19.2761 54.2242V63.7303C19.2761 64.4315 19.8445 64.9998 20.5457 64.9998C21.2468 64.9998 21.8152 64.4315 21.8152 63.7303V54.2242C21.8152 48.7002 19.6641 43.5069 15.758 39.6008C15.2624 39.1051 14.4584 39.1051 13.9626 39.6008Z" fill="black"/>
<path d="M48.828 8.23387C51.0766 8.23387 52.9061 6.40447 52.9061 4.15575C52.9061 1.90703 51.0767 0.0776367 48.828 0.0776367C46.5793 0.0776367 44.75 1.90703 44.75 4.15575C44.75 6.40447 46.5793 8.23387 48.828 8.23387ZM48.828 2.61683C49.6767 2.61683 50.367 3.3072 50.367 4.15588C50.367 5.00456 49.6767 5.69493 48.828 5.69493C47.9794 5.69493 47.2891 5.00456 47.2891 4.15588C47.2891 3.3072 47.9793 2.61683 48.828 2.61683Z" fill="#00CBDA"/>
<path d="M24.8031 14.5813C25.0511 14.8292 25.3759 14.9532 25.7008 14.9532C26.0257 14.9532 26.3507 14.8291 26.5985 14.5813C27.0943 14.0856 27.0943 13.2817 26.5985 12.7859L23.0041 9.19164C22.5083 8.69589 21.7045 8.69589 21.2087 9.19164C20.713 9.68739 20.713 10.4913 21.2088 10.987L24.8031 14.5813Z" fill="#00CBDA"/>
<path d="M16.1719 8.23387C18.4205 8.23387 20.2499 6.40447 20.2499 4.15575C20.2499 1.90703 18.4205 0.0776367 16.1719 0.0776367C13.9233 0.0776367 12.0938 1.90703 12.0938 4.15575C12.0938 6.40447 13.9233 8.23387 16.1719 8.23387ZM16.1719 2.61683C17.0206 2.61683 17.7108 3.3072 17.7108 4.15588C17.7108 5.00456 17.0204 5.69493 16.1719 5.69493C15.3232 5.69493 14.6328 5.00456 14.6328 4.15588C14.6328 3.3072 15.3232 2.61683 16.1719 2.61683Z" fill="black"/>
<path d="M32.5 12.1371C33.2012 12.1371 33.7695 11.5687 33.7695 10.8676V6.34766C33.7695 5.64649 33.2012 5.07812 32.5 5.07812C31.7988 5.07812 31.2305 5.64649 31.2305 6.34766V10.8674C31.2305 11.5687 31.7988 12.1371 32.5 12.1371Z" fill="black"/>
<path d="M32.5 41.0898C32.1661 41.0898 31.8386 41.2257 31.6024 41.4618C31.3663 41.6979 31.2305 42.0255 31.2305 42.3594C31.2305 42.6945 31.3663 43.0208 31.6024 43.2582C31.8386 43.4943 32.1661 43.6289 32.5 43.6289C32.8339 43.6289 33.1614 43.4943 33.3976 43.2582C33.6337 43.0208 33.7695 42.6933 33.7695 42.3594C33.7695 42.0255 33.6337 41.6992 33.3976 41.4618C33.1614 41.2257 32.8339 41.0898 32.5 41.0898Z" fill="black"/>
</svg>
