<svg width="55" height="61" viewBox="0 0 55 61" fill="none" xmlns="http://www.w3.org/2000/svg">
<path d="M47.7344 10.1875H49.7656C50.035 10.1875 50.2933 10.0805 50.4838 9.89003C50.6742 9.69956 50.7812 9.44124 50.7812 9.17188C50.7812 8.90251 50.6742 8.64419 50.4838 8.45372C50.2933 8.26325 50.035 8.15625 49.7656 8.15625H47.7344C47.465 8.15625 47.2067 8.26325 47.0162 8.45372C46.8258 8.64419 46.7188 8.90251 46.7188 9.17188C46.7188 9.44124 46.8258 9.69956 47.0162 9.89003C47.2067 10.0805 47.465 10.1875 47.7344 10.1875Z" fill="black"/>
<path d="M43.6719 14.25H49.7656C50.035 14.25 50.2933 14.143 50.4838 13.9525C50.6742 13.7621 50.7812 13.5037 50.7812 13.2344C50.7812 12.965 50.6742 12.7067 50.4838 12.5162C50.2933 12.3258 50.035 12.2188 49.7656 12.2188H43.6719C43.4025 12.2188 43.1442 12.3258 42.9537 12.5162C42.7633 12.7067 42.6562 12.965 42.6562 13.2344C42.6562 13.5037 42.7633 13.7621 42.9537 13.9525C43.1442 14.143 43.4025 14.25 43.6719 14.25Z" fill="#00CBDA"/>
<path d="M43.6719 10.1875C44.2328 10.1875 44.6875 9.73279 44.6875 9.17188C44.6875 8.61096 44.2328 8.15625 43.6719 8.15625C43.111 8.15625 42.6562 8.61096 42.6562 9.17188C42.6562 9.73279 43.111 10.1875 43.6719 10.1875Z" fill="black"/>
<path d="M38.7746 32.0943C38.8681 32.2292 38.9928 32.3394 39.1382 32.4155C39.2836 32.4916 39.4452 32.5314 39.6093 32.5314H49.7656C49.9387 32.5314 50.1089 32.4871 50.2601 32.4028C50.4113 32.3185 50.5385 32.197 50.6295 32.0497C50.7205 31.9024 50.7723 31.7343 50.7801 31.5614C50.7879 31.3884 50.7513 31.2164 50.6739 31.0615L47.627 24.9678C47.5427 24.7991 47.413 24.6572 47.2526 24.5581C47.0921 24.459 46.9073 24.4065 46.7187 24.4065C46.5301 24.4065 46.3452 24.459 46.1848 24.5581C46.0244 24.6572 45.8947 24.7991 45.8103 24.9678L44.9657 26.657L43.6073 23.0341C43.5347 22.8405 43.4048 22.6737 43.2349 22.5559C43.0649 22.4381 42.8631 22.375 42.6563 22.375C42.4495 22.375 42.2477 22.4381 42.0778 22.5559C41.9078 22.6737 41.7779 22.8405 41.7053 23.0341L38.6584 31.1592C38.6008 31.3128 38.5813 31.4782 38.6015 31.641C38.6217 31.8039 38.6811 31.9594 38.7746 32.0943ZM46.7187 27.6931L48.1223 30.5001H46.4069L45.9389 29.2523L46.7187 27.6931ZM42.6562 26.2833L44.2375 30.5001H41.0749L42.6562 26.2833Z" fill="#00CBDA"/>
<path d="M32.5 59.9531V52.8438H53.8281C54.0975 52.8438 54.3558 52.7367 54.5463 52.5463C54.7367 52.3558 54.8438 52.0975 54.8438 51.8281V1.04688C54.8438 0.777515 54.7367 0.519186 54.5463 0.32872C54.3558 0.138253 54.0975 0.03125 53.8281 0.03125H23.3594C23.09 0.03125 22.8317 0.138253 22.6412 0.32872C22.4508 0.519186 22.3438 0.777515 22.3438 1.04688V8.15625H1.01562C0.746265 8.15625 0.487936 8.26325 0.29747 8.45372C0.107003 8.64419 0 8.90251 0 9.17188V59.9531C0 60.2225 0.107003 60.4808 0.29747 60.6713C0.487936 60.8617 0.746265 60.9688 1.01562 60.9688H31.4844C31.7537 60.9688 32.0121 60.8617 32.2025 60.6713C32.393 60.4808 32.5 60.2225 32.5 59.9531ZM32.202 8.45319L31.905 8.15625H33.5156C33.7849 8.15655 34.043 8.26365 34.2334 8.45405C34.4238 8.64445 34.5309 8.90261 34.5312 9.17188V10.1875H32.5V9.17188C32.5002 9.03835 32.4739 8.90612 32.4228 8.78278C32.3717 8.65944 32.2966 8.54742 32.202 8.45319ZM34.5312 12.2188V16.2812H32.5V12.2188H34.5312ZM52.8125 2.0625V50.8125H32.5V46.75H41.6406C41.91 46.75 42.1683 46.643 42.3588 46.4525C42.5492 46.2621 42.6562 46.0037 42.6562 45.7344C42.6562 45.465 42.5492 45.2067 42.3588 45.0162C42.1683 44.8258 41.91 44.7188 41.6406 44.7188H32.5V42.6875H45.7031C45.9725 42.6875 46.2308 42.5805 46.4213 42.39C46.6117 42.1996 46.7188 41.9412 46.7188 41.6719C46.7188 41.4025 46.6117 41.1442 46.4213 40.9537C46.2308 40.7633 45.9725 40.6562 45.7031 40.6562H32.5V28.4688H35.5469C35.8162 28.4688 36.0746 28.3617 36.265 28.1713C36.4555 27.9808 36.5625 27.7225 36.5625 27.4531C36.5625 27.1838 36.4555 26.9254 36.265 26.735C36.0746 26.5445 35.8162 26.4375 35.5469 26.4375H32.5V24.4062H35.5469C35.8162 24.4062 36.0746 24.2992 36.265 24.1088C36.4555 23.9183 36.5625 23.66 36.5625 23.3906C36.5625 23.1213 36.4555 22.8629 36.265 22.6725C36.0746 22.482 35.8162 22.375 35.5469 22.375H32.5V18.3125H37.3843C38.2435 18.3115 39.0672 17.9697 39.6747 17.3622C40.2822 16.7547 40.624 15.931 40.625 15.0718V13.4282C40.624 12.569 40.2822 11.7453 39.6747 11.1378C39.0672 10.5303 38.2435 10.1885 37.3843 10.1875H36.5625V9.17188C36.5616 8.36407 36.2403 7.58961 35.6691 7.01841C35.0979 6.44721 34.3234 6.12591 33.5156 6.125H31.4844C31.0301 6.12532 30.5817 6.22712 30.1718 6.42296L25.8112 2.0625H52.8125ZM36.5625 16.2812V12.2188H37.3843C37.7049 12.2191 38.0124 12.3467 38.2391 12.5734C38.4658 12.8001 38.5934 13.1076 38.5938 13.4282V15.0718C38.5934 15.3924 38.4658 15.6999 38.2391 15.9266C38.0124 16.1533 37.7049 16.2809 37.3843 16.2812H36.5625ZM24.375 3.49872L29.0325 8.15625H24.375V3.49872ZM2.03125 10.1875H5.88682L2.03125 14.5938V10.1875ZM30.4688 58.9375H2.03125V17.6785L8.58584 10.1875H30.4688V58.9375Z" fill="black"/>
<path d="M25.2807 28.4706C24.7584 28.4841 24.2486 28.6332 23.8013 28.9032C23.3539 29.1731 22.9844 29.5547 22.729 30.0105C22.4765 30.4545 22.3438 30.9565 22.3438 31.4672C22.3438 31.978 22.4765 32.48 22.729 32.924L24.5063 36.077C24.5947 36.2338 24.7233 36.3643 24.8787 36.4552C25.0342 36.546 25.211 36.5939 25.3911 36.5939C25.5711 36.5939 25.7479 36.546 25.9034 36.4552C26.0589 36.3643 26.1874 36.2338 26.2758 36.077L28.0531 32.924C28.3056 32.48 28.4384 31.978 28.4384 31.4672C28.4384 30.9565 28.3056 30.4545 28.0531 30.0105C27.7976 29.5545 27.4278 29.1729 26.9802 28.9029C26.5326 28.6329 26.0225 28.4839 25.5 28.4706C25.427 28.4688 25.3548 28.4688 25.2807 28.4706ZM26.2818 31.0062C26.3624 31.1461 26.405 31.3047 26.4052 31.4661C26.4055 31.6276 26.3635 31.7863 26.2833 31.9265L25.3904 33.5101L24.4976 31.9265C24.4174 31.7863 24.3754 31.6276 24.3756 31.4661C24.3759 31.3047 24.4185 31.1461 24.4991 31.0062C24.5836 30.8551 24.7063 30.7288 24.855 30.6401C25.0037 30.5514 25.1731 30.5033 25.3463 30.5008C25.361 30.5008 25.3756 30.5 25.3904 30.5C25.4053 30.5 25.4199 30.5 25.4336 30.5C25.607 30.5026 25.7766 30.5507 25.9255 30.6395C26.0744 30.7284 26.1972 30.8548 26.2818 31.0062Z" fill="#00CBDA"/>
<path d="M11.5598 22.3752H8.125V21.3596C8.125 21.0903 8.018 20.8319 7.82753 20.6415C7.63706 20.451 7.37874 20.344 7.10938 20.344C6.84001 20.344 6.58169 20.451 6.39122 20.6415C6.20075 20.8319 6.09375 21.0903 6.09375 21.3596V23.3909C6.09375 23.6602 6.20075 23.9186 6.39122 24.109C6.58169 24.2995 6.84001 24.4065 7.10938 24.4065H11.5598L10.2635 26.9991C10.2026 27.1185 10.166 27.2488 10.1557 27.3825C10.1454 27.5161 10.1617 27.6505 10.2036 27.7778C10.2454 27.9051 10.3121 28.0229 10.3997 28.1244C10.4874 28.2258 10.5942 28.3089 10.7141 28.3688C10.834 28.4288 10.9645 28.4644 11.0983 28.4737C11.232 28.4829 11.3662 28.4656 11.4932 28.4227C11.6202 28.3798 11.7375 28.3122 11.8382 28.2238C11.939 28.1354 12.0212 28.028 12.0802 27.9076L13.8308 24.4065H16.25C16.5194 24.4065 16.7777 24.2995 16.9682 24.109C17.1586 23.9186 17.2656 23.6602 17.2656 23.3909C17.2656 23.1215 17.1586 22.8632 16.9682 22.6727C16.7777 22.4822 16.5194 22.3752 16.25 22.3752H13.8308L12.0802 18.8741C11.9585 18.6354 11.7473 18.4544 11.4928 18.3707C11.2382 18.2869 10.9609 18.3072 10.7212 18.4271C10.4815 18.5469 10.2989 18.7567 10.2132 19.0106C10.1274 19.2645 10.1455 19.542 10.2635 19.7826L11.5598 22.3752Z" fill="#00CBDA"/>
<path d="M8.125 39.6406C8.125 41.0467 8.54196 42.4212 9.32315 43.5904C10.1043 44.7595 11.2147 45.6707 12.5137 46.2088C13.8128 46.7469 15.2423 46.8877 16.6213 46.6134C18.0004 46.3391 19.2672 45.662 20.2615 44.6677C21.2557 43.6734 21.9328 42.4067 22.2071 41.0276C22.4815 39.6485 22.3407 38.219 21.8026 36.92C21.2645 35.6209 20.3533 34.5106 19.1841 33.7294C18.015 32.9482 16.6405 32.5312 15.2344 32.5312C13.3495 32.5334 11.5425 33.2831 10.2097 34.6159C8.87686 35.9487 8.12715 37.7558 8.125 39.6406ZM15.2344 34.5625C16.2387 34.5625 17.2205 34.8603 18.0556 35.4183C18.8907 35.9763 19.5416 36.7694 19.926 37.6973C20.3103 38.6252 20.4109 39.6463 20.2149 40.6313C20.019 41.6164 19.5353 42.5212 18.8252 43.2314C18.115 43.9416 17.2101 44.4252 16.2251 44.6212C15.24 44.8171 14.219 44.7165 13.2911 44.3322C12.3632 43.9478 11.5701 43.297 11.0121 42.4619C10.4541 41.6268 10.1562 40.645 10.1562 39.6406C10.1578 38.2943 10.6933 37.0035 11.6453 36.0515C12.5973 35.0995 13.888 34.564 15.2344 34.5625Z" fill="#00CBDA"/>
<path d="M17.9766 30.9189C18.1039 30.959 18.2378 30.9735 18.3707 30.9618C18.5036 30.95 18.6329 30.9122 18.7512 30.8505C18.8695 30.7888 18.9745 30.7044 19.0602 30.6021C19.1458 30.4998 19.2105 30.3816 19.2505 30.2543C19.2905 30.1271 19.3051 29.9931 19.2934 29.8602C19.2816 29.7273 19.2438 29.598 19.1821 29.4797C19.1204 29.3614 19.036 29.2564 18.9337 29.1708C18.8314 29.0851 18.7132 29.0204 18.5859 28.9804C17.5013 28.6403 16.3711 28.4678 15.2344 28.4688C14.965 28.4688 14.7067 28.5758 14.5162 28.7662C14.3258 28.9567 14.2188 29.215 14.2188 29.4844C14.2188 29.7537 14.3258 30.0121 14.5162 30.2025C14.7067 30.393 14.965 30.5 15.2344 30.5C16.1644 30.4993 17.0891 30.6406 17.9766 30.9189Z" fill="black"/>
<path d="M25.3906 38.6249C25.1213 38.6249 24.8629 38.7319 24.6725 38.9224C24.482 39.1128 24.375 39.3711 24.375 39.6405C24.375 41.1986 23.9767 42.7308 23.218 44.0917C22.4593 45.4525 21.3653 46.5969 20.0399 47.416C18.7145 48.2351 17.2017 48.7019 15.6452 48.7719C14.0887 48.8419 12.5402 48.5129 11.1466 47.8161C9.75298 47.1193 8.56063 46.0779 7.68276 44.7907C6.80488 43.5034 6.27061 42.0132 6.13069 40.4614C5.99076 38.9096 6.24983 37.3478 6.88328 35.9243C7.51673 34.5008 8.50354 33.2628 9.75 32.328C9.85768 32.2483 9.94852 32.148 10.0173 32.0331C10.0861 31.9181 10.1314 31.7907 10.1507 31.6581C10.17 31.5255 10.1629 31.3904 10.1298 31.2606C10.0967 31.1308 10.0382 31.0088 9.95771 30.9017C9.87724 30.7946 9.77637 30.7044 9.66092 30.6365C9.54546 30.5685 9.4177 30.5241 9.28499 30.5057C9.15228 30.4873 9.01725 30.4954 8.88767 30.5294C8.75809 30.5635 8.63653 30.6228 8.52998 30.704C7.00674 31.8468 5.80088 33.3599 5.02691 35.0998C4.25294 36.8397 3.93654 38.7485 4.10775 40.6451C4.27897 42.5416 4.93212 44.3629 6.00519 45.936C7.07826 47.5092 8.53562 48.7819 10.2389 49.6334C11.9422 50.4849 13.8348 50.8868 15.7372 50.8011C17.6395 50.7154 19.4883 50.1449 21.1082 49.1437C22.728 48.1425 24.065 46.7439 24.9923 45.0807C25.9195 43.4174 26.4063 41.5448 26.4063 39.6405C26.4063 39.3711 26.2993 39.1128 26.1088 38.9224C25.9183 38.7319 25.66 38.6249 25.3906 38.6249Z" fill="black"/>
<path d="M22.3438 54.875H16.25C15.9806 54.875 15.7223 54.982 15.5318 55.1725C15.3414 55.3629 15.2344 55.6213 15.2344 55.8906C15.2344 56.16 15.3414 56.4183 15.5318 56.6088C15.7223 56.7992 15.9806 56.9062 16.25 56.9062H22.3438C22.6131 56.9062 22.8714 56.7992 23.0619 56.6088C23.2524 56.4183 23.3594 56.16 23.3594 55.8906C23.3594 55.6213 23.2524 55.3629 23.0619 55.1725C22.8714 54.982 22.6131 54.875 22.3438 54.875Z" fill="#00CBDA"/>
<path d="M12.1875 54.875H10.1562C9.88689 54.875 9.62856 54.982 9.43809 55.1725C9.24763 55.3629 9.14062 55.6213 9.14062 55.8906C9.14062 56.16 9.24763 56.4183 9.43809 56.6088C9.62856 56.7992 9.88689 56.9062 10.1562 56.9062H12.1875C12.4569 56.9062 12.7152 56.7992 12.9057 56.6088C13.0961 56.4183 13.2031 56.16 13.2031 55.8906C13.2031 55.6213 13.0961 55.3629 12.9057 55.1725C12.7152 54.982 12.4569 54.875 12.1875 54.875Z" fill="black"/>
<path d="M49.7656 44.7188H45.7031C45.4338 44.7188 45.1754 44.8258 44.985 45.0162C44.7945 45.2067 44.6875 45.465 44.6875 45.7344C44.6875 46.0037 44.7945 46.2621 44.985 46.4525C45.1754 46.643 45.4338 46.75 45.7031 46.75H49.7656C50.035 46.75 50.2933 46.643 50.4838 46.4525C50.6742 46.2621 50.7812 46.0037 50.7812 45.7344C50.7812 45.465 50.6742 45.2067 50.4838 45.0162C50.2933 44.8258 50.035 44.7188 49.7656 44.7188Z" fill="#00CBDA"/>
<path d="M49.7656 36.5938H41.6406C41.3713 36.5938 41.1129 36.7008 40.9225 36.8912C40.732 37.0817 40.625 37.34 40.625 37.6094C40.625 37.8787 40.732 38.1371 40.9225 38.3275C41.1129 38.518 41.3713 38.625 41.6406 38.625H49.7656C50.035 38.625 50.2933 38.518 50.4838 38.3275C50.6742 38.1371 50.7812 37.8787 50.7812 37.6094C50.7812 37.34 50.6742 37.0817 50.4838 36.8912C50.2933 36.7008 50.035 36.5938 49.7656 36.5938Z" fill="black"/>
<path d="M35.5469 32.5312C36.1078 32.5312 36.5625 32.0765 36.5625 31.5156C36.5625 30.9547 36.1078 30.5 35.5469 30.5C34.986 30.5 34.5312 30.9547 34.5312 31.5156C34.5312 32.0765 34.986 32.5312 35.5469 32.5312Z" fill="black"/>
<path d="M49.7656 42.6875C50.3265 42.6875 50.7812 42.2328 50.7812 41.6719C50.7812 41.111 50.3265 40.6562 49.7656 40.6562C49.2047 40.6562 48.75 41.111 48.75 41.6719C48.75 42.2328 49.2047 42.6875 49.7656 42.6875Z" fill="#00CBDA"/>
<path d="M37.5781 36.5938H35.5469C35.2775 36.5938 35.0192 36.7008 34.8287 36.8912C34.6383 37.0817 34.5312 37.34 34.5312 37.6094C34.5312 37.8787 34.6383 38.1371 34.8287 38.3275C35.0192 38.518 35.2775 38.625 35.5469 38.625H37.5781C37.8475 38.625 38.1058 38.518 38.2963 38.3275C38.4867 38.1371 38.5938 37.8787 38.5938 37.6094C38.5938 37.34 38.4867 37.0817 38.2963 36.8912C38.1058 36.7008 37.8475 36.5938 37.5781 36.5938Z" fill="#00CBDA"/>
<path d="M43.6719 18.3125H49.7656C50.035 18.3125 50.2933 18.2055 50.4838 18.015C50.6742 17.8246 50.7812 17.5662 50.7812 17.2969C50.7812 17.0275 50.6742 16.7692 50.4838 16.5787C50.2933 16.3883 50.035 16.2812 49.7656 16.2812H43.6719C43.4025 16.2812 43.1442 16.3883 42.9537 16.5787C42.7633 16.7692 42.6562 17.0275 42.6562 17.2969C42.6562 17.5662 42.7633 17.8246 42.9537 18.015C43.1442 18.2055 43.4025 18.3125 43.6719 18.3125Z" fill="#00CBDA"/>
<path d="M17.2656 16.2812H25.3906C25.66 16.2812 25.9183 16.1742 26.1088 15.9838C26.2992 15.7933 26.4062 15.535 26.4062 15.2656C26.4062 14.9963 26.2992 14.7379 26.1088 14.5475C25.9183 14.357 25.66 14.25 25.3906 14.25H17.2656C16.9963 14.25 16.7379 14.357 16.5475 14.5475C16.357 14.7379 16.25 14.9963 16.25 15.2656C16.25 15.535 16.357 15.7933 16.5475 15.9838C16.7379 16.1742 16.9963 16.2812 17.2656 16.2812Z" fill="#00CBDA"/>
<path d="M25.3906 20.3438C25.66 20.3438 25.9183 20.2367 26.1088 20.0463C26.2992 19.8558 26.4062 19.5975 26.4062 19.3281C26.4062 19.0588 26.2992 18.8004 26.1088 18.61C25.9183 18.4195 25.66 18.3125 25.3906 18.3125H23.3594C23.09 18.3125 22.8317 18.4195 22.6412 18.61C22.4508 18.8004 22.3438 19.0588 22.3438 19.3281C22.3438 19.5975 22.4508 19.8558 22.6412 20.0463C22.8317 20.2367 23.09 20.3438 23.3594 20.3438H25.3906Z" fill="black"/>
</svg>
