<svg width="65" height="65" viewBox="0 0 65 65" fill="none" xmlns="http://www.w3.org/2000/svg">
<path d="M30.7569 9.95996C29.6723 9.95996 28.6527 10.3825 27.886 11.1497C27.1189 11.9163 26.6964 12.9359 26.6969 14.0205C26.6969 16.3041 25.8722 18.4633 24.3666 20.1628C24.4633 19.6967 24.5144 19.2141 24.5144 18.7197C24.5144 14.8015 21.3271 11.6138 17.4089 11.6138C13.4908 11.6138 10.303 14.8015 10.303 18.7197C10.303 19.2141 10.3541 19.6967 10.4508 20.1628C9.00276 18.5243 8.12103 16.3741 8.12103 14.0205C8.12103 11.7814 6.29955 9.95996 4.06052 9.95996C1.82148 9.95996 0 11.7814 0 14.0205C0 20.7778 3.87356 26.8591 9.93805 29.7433V42.7808C9.93805 42.7873 9.93706 42.7937 9.93706 42.8007V63.6978C9.93706 64.3986 10.5054 64.9664 11.2061 64.9664C11.9068 64.9664 12.4746 64.3986 12.4746 63.6978V44.0697H23.955V58.6222C23.955 59.3229 24.5233 59.8912 25.224 59.8912C25.9247 59.8912 26.493 59.3229 26.493 58.6222V28.8651C27.6614 28.148 28.742 27.296 29.713 26.325C33.0048 23.0332 34.8174 18.6637 34.8174 14.0205C34.8174 11.7814 32.9959 9.95996 30.7569 9.95996ZM17.4089 14.1514C19.9277 14.1514 21.9768 16.2005 21.9768 18.7197C21.9768 21.2385 19.9277 23.2876 17.4089 23.2876C14.8897 23.2876 12.8406 21.2385 12.8406 18.7197C12.8406 16.2005 14.8897 14.1514 17.4089 14.1514ZM27.9188 24.5303C26.9359 25.5127 25.8221 26.3533 24.6076 27.0287C24.2049 27.2524 23.955 27.6769 23.955 28.1376V41.5316H12.4756V28.9206C12.4756 28.4088 12.1682 27.9471 11.6961 27.7498C6.13243 25.4254 2.53757 20.0364 2.53757 14.0205C2.53757 13.1809 3.22044 12.498 4.06002 12.498C4.8996 12.498 5.58296 13.1814 5.58296 14.0205C5.58296 20.5412 10.8882 25.846 17.4084 25.846H17.4089C20.5624 25.846 23.5305 24.6151 25.767 22.3791C28.0031 20.1435 29.2344 17.175 29.2344 14.0205C29.2344 13.6138 29.3926 13.2315 29.6803 12.9439C29.9679 12.6562 30.3502 12.498 30.7569 12.498C31.5965 12.498 32.2793 13.1809 32.2798 14.0205C32.2798 17.9858 30.7306 21.718 27.9188 24.5303Z" fill="black"/>
<path d="M25.2241 62.4292C24.8889 62.4292 24.5631 62.5646 24.327 62.8006C24.091 63.0367 23.9551 63.363 23.9551 63.6977C23.9551 64.0315 24.091 64.3588 24.327 64.5948C24.5631 64.8309 24.8904 64.9668 25.2241 64.9668C25.5579 64.9668 25.8852 64.8309 26.1212 64.5948C26.3573 64.3588 26.4931 64.0315 26.4931 63.6977C26.4931 63.364 26.3573 63.0367 26.1212 62.8006C25.8852 62.5646 25.5579 62.4292 25.2241 62.4292Z" fill="#00CBDA"/>
<path d="M18.23 49.2222C17.5293 49.2222 16.9609 49.7905 16.9609 50.4912V63.731C16.9609 64.4317 17.5293 65.0001 18.23 65.0001C18.9307 65.0001 19.4985 64.4317 19.4985 63.731V50.4912C19.4985 49.7905 18.9307 49.2222 18.23 49.2222Z" fill="black"/>
<path d="M60.9058 27.3223C59.8213 27.3223 58.8012 27.7448 58.0345 28.5115C57.2673 29.2786 56.8453 30.2982 56.8453 31.3828C56.8453 33.6665 56.0211 35.8256 54.5155 37.5251C54.6117 37.059 54.6628 36.5765 54.6628 36.082C54.6628 32.1638 51.4756 28.9761 47.5574 28.9761C43.6392 28.9761 40.4515 32.1638 40.4515 36.082C40.4515 36.5765 40.5026 37.059 40.5993 37.5251C39.1512 35.8866 38.2695 33.7364 38.2695 31.3828C38.2695 29.1437 36.448 27.3223 34.209 27.3223C31.9699 27.3223 30.1484 29.1437 30.1484 31.3828C30.1484 32.93 30.3528 34.4654 30.7559 35.9471C30.9394 36.6231 31.6362 37.0228 32.3131 36.8383C32.9895 36.6543 33.3882 35.9571 33.2042 35.2811C32.8606 34.0166 32.686 32.7049 32.686 31.3828C32.686 30.5432 33.3694 29.8598 34.209 29.8598C35.0485 29.8603 35.7314 30.5432 35.7314 31.3828C35.7314 37.9035 41.0367 43.2083 47.5569 43.2083H47.5574C50.7109 43.2083 53.6789 41.9769 55.9155 39.7414C58.1515 37.5058 59.3829 34.5373 59.3829 31.3823C59.3829 30.9761 59.5411 30.5938 59.8287 30.3062C60.1163 30.0185 60.4987 29.8598 60.9053 29.8598C61.7449 29.8598 62.4278 30.5432 62.4283 31.3828C62.4278 35.3481 60.879 39.0803 58.0667 41.8926C57.0848 42.875 55.9705 43.7156 54.756 44.3905C54.3533 44.6147 54.1034 45.0392 54.1034 45.4999V58.8939H42.6241V46.2829C42.6241 45.7711 42.3166 45.3094 41.8445 45.1121C40.6067 44.5948 39.4418 43.91 38.3825 43.0773C37.8316 42.6439 37.0342 42.7396 36.6007 43.2906C36.1678 43.841 36.263 44.639 36.814 45.0724C37.8286 45.8703 38.9266 46.5517 40.0865 47.1051V60.1431C40.086 60.1496 40.0855 60.156 40.0855 60.163V63.6978C40.0855 64.3985 40.6533 64.9663 41.354 64.9663C42.0548 64.9663 42.6231 64.3985 42.6231 63.6978V61.4315H54.1034V63.6978C54.1034 64.3985 54.6717 64.9663 55.3724 64.9663C56.0732 64.9663 56.641 64.3985 56.641 63.6978V46.2274C57.8098 45.5103 58.8904 44.6578 59.8614 43.6868C63.1528 40.3955 64.9658 36.0255 64.9658 31.3823C64.9658 29.1437 63.1443 27.3223 60.9058 27.3223ZM47.5574 31.5137C50.0761 31.5137 52.1252 33.5628 52.1252 36.082C52.1252 38.6008 50.0761 40.6499 47.5574 40.6499C45.0387 40.6499 42.9895 38.6008 42.9895 36.082C42.9895 33.5628 45.0387 31.5137 47.5574 31.5137Z" fill="#00CBDA"/>
<path d="M35.225 39.6825C34.8322 39.1018 34.0432 38.9496 33.463 39.3414C32.8823 39.7341 32.7296 40.5226 33.1218 41.1033L33.1362 41.1246C33.3807 41.4911 33.7829 41.6895 34.193 41.6895C34.4345 41.6895 34.6795 41.6205 34.8957 41.4762C35.4789 41.0874 35.6361 40.2999 35.2473 39.7168L35.225 39.6825Z" fill="black"/>
<path d="M56.8462 16.4713C57.5469 16.4713 58.1152 15.9035 58.1152 15.2027V13.4502C58.1152 12.7495 57.5469 12.1812 56.8462 12.1812C56.1455 12.1812 55.5771 12.7495 55.5771 13.4502V15.2027C55.5771 15.9035 56.1455 16.4713 56.8462 16.4713Z" fill="black"/>
<path d="M56.8462 24.8702C57.5469 24.8702 58.1152 24.3019 58.1152 23.6012V21.8486C58.1152 21.1484 57.5469 20.5801 56.8462 20.5801C56.1455 20.5801 55.5771 21.1484 55.5771 21.8486V23.6012C55.5771 24.3019 56.1455 24.8702 56.8462 24.8702Z" fill="black"/>
<path d="M60.1684 19.7944H61.921C62.6217 19.7944 63.1895 19.2266 63.1895 18.5259C63.1895 17.8251 62.6217 17.2568 61.921 17.2568H60.1684C59.4677 17.2568 58.8994 17.8251 58.8994 18.5259C58.8994 19.2266 59.4677 19.7944 60.1684 19.7944Z" fill="black"/>
<path d="M51.77 19.7944H53.5226C54.2233 19.7944 54.7916 19.2266 54.7916 18.5259C54.7916 17.8251 54.2233 17.2568 53.5226 17.2568H51.77C51.0693 17.2568 50.501 17.8251 50.501 18.5259C50.501 19.2266 51.0693 19.7944 51.77 19.7944Z" fill="#00CBDA"/>
<path d="M43.6499 4.29012C44.3506 4.29012 44.9184 3.72181 44.9184 3.02109V1.26904C44.9184 0.568313 44.3506 0 43.6499 0C42.9492 0 42.3809 0.568313 42.3809 1.26904V3.02109C42.3809 3.72181 42.9487 4.29012 43.6499 4.29012Z" fill="#00CBDA"/>
<path d="M43.6499 12.6891C44.3506 12.6891 44.9184 12.1207 44.9184 11.42V9.66747C44.9184 8.96675 44.3506 8.39844 43.6499 8.39844C42.9492 8.39844 42.3809 8.96675 42.3809 9.66747V11.42C42.3809 12.1207 42.9487 12.6891 43.6499 12.6891Z" fill="#00CBDA"/>
<path d="M46.9717 7.61326H48.7242C49.4249 7.61326 49.9932 7.04494 49.9932 6.34422C49.9932 5.6435 49.4249 5.07568 48.7242 5.07568H46.9717C46.2709 5.07568 45.7031 5.6435 45.7031 6.34422C45.7031 7.04494 46.2709 7.61326 46.9717 7.61326Z" fill="black"/>
<path d="M38.5737 7.61326H40.3263C41.027 7.61326 41.5953 7.04494 41.5953 6.34422C41.5953 5.6435 41.027 5.07568 40.3263 5.07568H38.5737C37.873 5.07568 37.3047 5.6435 37.3047 6.34422C37.3047 7.04494 37.873 7.61326 38.5737 7.61326Z" fill="#00CBDA"/>
</svg>
