<svg width="90" height="90" viewBox="0 0 90 90" fill="none" xmlns="http://www.w3.org/2000/svg">
<path d="M60.8203 56.0742C59.8496 56.0742 59.0625 56.8612 59.0625 57.832V69.9609C59.0625 74.8072 55.1197 78.75 50.2734 78.75H31.2947C30.3242 78.75 29.5376 79.5363 29.5369 80.5066L29.5344 84.0015L25.3389 79.8061C25.0673 79.1826 24.4457 78.75 23.7268 78.75H12.3047C7.4584 78.75 3.51562 74.8072 3.51562 69.9609V42.8906C3.51562 38.0443 7.4584 34.1016 12.3047 34.1016H30.0586C31.0293 34.1016 31.8164 33.3146 31.8164 32.3438C31.8164 31.3729 31.0293 30.5859 30.0586 30.5859H12.3047C5.51988 30.5859 0 36.1058 0 42.8906V69.9609C0 76.7457 5.51988 82.2656 12.3047 82.2656H22.8266L30.0461 89.4851C30.3824 89.8214 30.8319 90 31.2894 90C31.5156 90 31.744 89.9562 31.9611 89.8664C32.618 89.5946 33.0463 88.9541 33.0469 88.2434L33.0511 82.2656H50.2734C57.0582 82.2656 62.5781 76.7457 62.5781 69.9609V57.832C62.5781 56.8612 61.791 56.0742 60.8203 56.0742Z" fill="black"/>
<path d="M64.4511 0H60.0022C45.9144 0 34.4531 11.4613 34.4531 25.5491C34.4531 39.6369 45.9144 51.098 60.0021 51.098H64.4509C66.6497 51.098 68.8261 50.8187 70.9355 50.2668L77.5074 56.835C77.8437 57.1709 78.293 57.3495 78.7504 57.3495C78.9769 57.3495 79.2054 57.3057 79.4229 57.2156C80.0796 56.9435 80.5078 56.3026 80.5078 55.5917V45.4217C83.2903 43.1684 85.6016 40.3219 87.2237 37.1421C89.0661 33.5304 90 29.63 90 25.5491C90 11.4613 78.5387 0 64.4511 0ZM77.6923 43.1604C77.2516 43.4925 76.9922 44.0125 76.9922 44.5646V51.3497L72.6906 47.0505C72.356 46.7162 71.907 46.536 71.4479 46.536C71.2756 46.536 71.1016 46.5615 70.9318 46.6137C68.8395 47.2567 66.6591 47.5826 64.4511 47.5826H60.0022C47.8528 47.5826 37.9688 37.6984 37.9688 25.5491C37.9688 13.3998 47.8529 3.51562 60.0022 3.51562H64.4511C76.6004 3.51562 86.4844 13.3998 86.4844 25.5491C86.4844 32.5331 83.2799 38.9522 77.6923 43.1604Z" fill="black"/>
<path d="M70.1426 19.234C69.889 15.5541 66.9225 12.5876 63.2423 12.3339C61.1561 12.1907 59.1652 12.8943 57.6414 14.3169C56.1385 15.7198 55.2766 17.703 55.2766 19.758C55.2766 20.7289 56.0638 21.5159 57.0344 21.5159C58.0051 21.5159 58.7922 20.7289 58.7922 19.758C58.7922 18.6578 59.2356 17.6381 60.0403 16.887C60.8443 16.1366 61.8951 15.7652 63.0008 15.8415C64.9393 15.9751 66.5018 17.5376 66.6354 19.4759C66.7704 21.4336 65.486 23.1636 63.5816 23.5897C62.0386 23.935 60.961 25.2758 60.961 26.8503V31.0734C60.961 32.0443 61.7482 32.8313 62.7188 32.8313C63.6897 32.8313 64.4767 32.0443 64.4765 31.0734V26.9907C68.0185 26.135 70.3948 22.894 70.1426 19.234Z" fill="#00CBDA"/>
<path d="M63.9615 36.7838C63.6346 36.4569 63.1811 36.2688 62.7188 36.2688C62.2564 36.2688 61.8029 36.4569 61.476 36.7838C61.149 37.1108 60.9609 37.5643 60.9609 38.0266C60.9609 38.4907 61.1492 38.9442 61.476 39.2711C61.8029 39.5981 62.2564 39.7844 62.7188 39.7844C63.1811 39.7844 63.6346 39.5981 63.9615 39.2711C64.2885 38.9424 64.4766 38.4907 64.4766 38.0266C64.4766 37.5643 64.2883 37.1108 63.9615 36.7838Z" fill="black"/>
<path d="M48.3398 54.4922H11.25C10.2793 54.4922 9.49219 55.2792 9.49219 56.25C9.49219 57.2208 10.2793 58.0078 11.25 58.0078H48.3398C49.3107 58.0078 50.0977 57.2208 50.0977 56.25C50.0977 55.2792 49.3105 54.4922 48.3398 54.4922Z" fill="#00CBDA"/>
<path d="M49.5824 64.851C49.2557 64.524 48.8021 64.3359 48.3398 64.3359C47.8775 64.3359 47.424 64.524 47.0971 64.851C46.7699 65.1779 46.582 65.6314 46.582 66.0938C46.582 66.5561 46.7701 67.0096 47.0971 67.3365C47.424 67.6635 47.8775 67.8516 48.3398 67.8516C48.8021 67.8516 49.2557 67.6635 49.5824 67.3365C49.9096 67.0096 50.0977 66.5578 50.0977 66.0938C50.0977 65.6314 49.9094 65.1779 49.5824 64.851Z" fill="black"/>
<path d="M41.4258 64.3359H11.25C10.2793 64.3359 9.49219 65.1229 9.49219 66.0938C9.49219 67.0646 10.2793 67.8516 11.25 67.8516H41.4258C42.3967 67.8516 43.1837 67.0646 43.1837 66.0938C43.1837 65.1229 42.3965 64.3359 41.4258 64.3359Z" fill="#00CBDA"/>
<path d="M36.9141 44.6484H11.25C10.2793 44.6484 9.49219 45.4354 9.49219 46.4062C9.49219 47.3771 10.2793 48.1641 11.25 48.1641H36.9141C37.8849 48.1641 38.6719 47.3771 38.6719 46.4062C38.6719 45.4354 37.8847 44.6484 36.9141 44.6484Z" fill="#00CBDA"/>
</svg>
