<svg width="90" height="90" viewBox="0 0 90 90" fill="none" xmlns="http://www.w3.org/2000/svg">
<path d="M43.1755 64.771H32.4146C31.4439 64.771 30.6567 65.5581 30.6567 66.5288C30.6567 67.4995 31.4437 68.2866 32.4146 68.2866H43.1755C44.1462 68.2866 44.9333 67.4995 44.9333 66.5288C44.9333 65.5581 44.1464 64.771 43.1755 64.771Z" fill="black"/>
<path d="M61.2183 64.771H50.4573C49.4866 64.771 48.6995 65.5581 48.6995 66.5288C48.6995 67.4995 49.4866 68.2866 50.4573 68.2866H61.2183C62.1891 68.2866 62.9761 67.4996 62.9761 66.5288C62.9761 65.5581 62.1889 64.771 61.2183 64.771Z" fill="black"/>
<path d="M79.5105 64.771H68.7495C67.7788 64.771 66.9917 65.5581 66.9917 66.5288C66.9917 67.4995 67.7788 68.2866 68.7495 68.2866H79.5105C80.4811 68.2866 81.2683 67.4995 81.2683 66.5288C81.2683 65.5581 80.4811 64.771 79.5105 64.771Z" fill="black"/>
<path d="M76.0368 70.8357C74.89 70.8357 73.8088 71.1203 72.858 71.6202C71.907 71.1203 70.8259 70.8357 69.6791 70.8357C65.8988 70.8357 62.8235 73.911 62.8235 77.6913C62.8235 81.4717 65.8988 84.547 69.6791 84.547C70.8259 84.547 71.9072 84.2624 72.858 83.7625C73.8089 84.2624 74.89 84.547 76.0368 84.547C79.8171 84.547 82.8924 81.4717 82.8924 77.6913C82.8924 73.911 79.8171 70.8357 76.0368 70.8357ZM70.0412 81.0108C69.9222 81.0236 69.8015 81.0314 69.679 81.0314C67.8373 81.0314 66.3391 79.5332 66.3391 77.6915C66.3391 75.8499 67.8375 74.3517 69.679 74.3517C69.8015 74.3517 69.9221 74.3592 70.0412 74.3722C69.4942 75.3564 69.1813 76.4879 69.1813 77.6915C69.1813 78.8949 69.4942 80.0266 70.0412 81.0108ZM72.858 78.7121C72.7542 78.3901 72.6969 78.0475 72.6969 77.6913C72.6969 77.3352 72.7542 76.9926 72.858 76.6706C72.9618 76.9926 73.019 77.3352 73.019 77.6913C73.019 78.0475 72.9617 78.3901 72.858 78.7121ZM76.037 81.0314C75.9144 81.0314 75.7938 81.0238 75.6747 81.0108C76.2217 80.0266 76.5346 78.8951 76.5346 77.6915C76.5346 76.4879 76.2217 75.3564 75.6747 74.3722C75.7937 74.3594 75.9144 74.3517 76.037 74.3517C77.8786 74.3517 79.3768 75.8499 79.3768 77.6915C79.377 79.5332 77.8786 81.0314 76.037 81.0314Z" fill="#00CBDA"/>
<path d="M45.0001 49.2249H32.3435C31.3728 49.2249 30.5857 50.012 30.5857 50.9827V59.0614C30.5857 60.0321 31.3728 60.8192 32.3435 60.8192H45.0001C45.9707 60.8192 46.7579 60.0321 46.7579 59.0614V50.9827C46.7579 50.012 45.9707 49.2249 45.0001 49.2249ZM43.2421 57.3036H34.1013V52.7405H43.2421V57.3036Z" fill="#00CBDA"/>
<path d="M45.1878 86.4844H45.1646C44.1939 86.4844 43.4067 87.2715 43.4067 88.2422C43.4067 89.2129 44.1939 90 45.1646 90H45.1878C46.1584 90 46.9456 89.2129 46.9456 88.2422C46.9456 87.2715 46.1586 86.4844 45.1878 86.4844Z" fill="#00CBDA"/>
<path d="M84.7261 43.0583H67.1268L75.4506 34.7347C77.5065 32.6786 77.5065 29.333 75.4506 27.2769L49.7157 1.54195C47.6594 -0.51416 44.3138 -0.513809 42.2577 1.54195L1.54182 42.2578C-0.51394 44.3139 -0.51394 47.6596 1.54182 49.7157L21.8716 70.0455V84.726C21.8716 87.6338 24.2373 89.9996 27.1452 89.9996H36.5991C37.5698 89.9996 38.3569 89.2125 38.3569 88.2418C38.3569 87.2712 37.5698 86.484 36.5991 86.484H27.1452C26.176 86.484 25.3874 85.6954 25.3874 84.7262V48.3319C25.3874 47.3627 26.176 46.5741 27.1452 46.5741H84.7261C85.6953 46.5741 86.4839 47.3627 86.4839 48.3319V84.7262C86.4839 85.6954 85.6953 86.484 84.7261 86.484H52.2443C51.2737 86.484 50.4865 87.2712 50.4865 88.2418C50.4865 89.2125 51.2737 89.9996 52.2443 89.9996H84.7262C87.634 89.9996 89.9998 87.634 89.9998 84.726V48.3319C89.9997 45.4241 87.634 43.0583 84.7261 43.0583ZM4.02789 47.23C3.3427 46.5446 3.3427 45.4292 4.02807 44.7439L44.7439 4.0282C45.4295 3.34266 46.5448 3.34301 47.2298 4.0282L49.895 6.6934L6.69309 49.8951L4.02789 47.23ZM21.8716 65.0733L14.8919 58.0938L21.8716 51.1138V65.0733ZM51.649 43.0583L55.6478 39.0595C56.3342 38.373 56.3342 37.26 55.6478 36.5736C54.9612 35.8871 53.8485 35.8871 53.1617 36.5736L46.6772 43.0583H42.0395L51.5809 33.5167C52.2674 32.8303 52.2674 31.7173 51.5809 31.0307C50.8943 30.3442 49.7816 30.3442 49.0949 31.0307L37.0672 43.0583H29.9275L49.3251 23.6602C50.0116 22.9737 50.0116 21.8607 49.3251 21.1743C48.6385 20.4878 47.5258 20.4878 46.8391 21.1743L12.406 55.6077L9.17916 52.3812L52.3809 9.17947L72.9644 29.7627C73.2962 30.0948 73.4791 30.5364 73.4791 31.0059C73.4791 31.4754 73.2962 31.9168 72.9642 32.2488L62.1543 43.0585H51.649V43.0583Z" fill="black"/>
<path d="M54.0017 16.4982C53.6748 16.1712 53.2214 15.9832 52.7572 15.9832C52.2949 15.9833 51.8414 16.1712 51.5162 16.4982C51.1875 16.8251 51.001 17.2787 51.001 17.741C51.001 18.2033 51.1875 18.6568 51.5162 18.9837C51.8414 19.3107 52.2949 19.4988 52.7572 19.4988C53.2214 19.4988 53.6748 19.3107 54.0017 18.9837C54.3287 18.6568 54.5168 18.2033 54.5168 17.741C54.5168 17.2787 54.3289 16.8251 54.0017 16.4982Z" fill="#00CBDA"/>
</svg>
