<svg width="95" height="90" viewBox="0 0 95 90" fill="none" xmlns="http://www.w3.org/2000/svg">
<path d="M6.28721 15.7932C5.84509 14.5537 5.60216 13.2204 5.60216 11.8309C5.60216 5.30739 10.9075 0 17.4286 0C22.0579 0 26.2348 2.73308 28.1535 6.83298C29.1219 6.60506 30.13 6.48067 31.1674 6.48067C32.2057 6.48067 33.2149 6.60524 34.1844 6.83353C36.0992 2.73345 40.2745 0.000182999 44.9062 0.000182999C51.4302 0.000182999 56.7379 5.30739 56.7379 11.831C56.7379 13.2216 56.4946 14.5563 56.0514 15.7965C59.4302 18.9102 61.3418 23.2287 61.3418 27.8492V33.5174C61.3418 37.0571 58.4593 39.9369 54.9162 39.9369H49.5484V44.219C49.5484 48.097 46.3932 51.2521 42.5148 51.2521H19.8249C15.9466 51.2521 12.7913 48.097 12.7913 44.219V39.9369H7.41806C3.87791 39.9369 0.99794 37.0571 0.99794 33.5174V27.8491C0.998123 23.2251 2.90914 18.9053 6.28721 15.7932ZM17.4286 3.68448C12.9391 3.68448 9.28664 7.33895 9.28664 11.8309C9.28664 16.3198 12.9391 19.9719 17.4286 19.9719C17.6253 19.9719 17.8216 19.9635 18.0169 19.9496C18.0145 19.8457 18.009 19.7425 18.009 19.6379C18.009 14.7277 20.7149 10.4401 24.712 8.17949C23.3484 5.47385 20.5371 3.68448 17.4286 3.68448ZM31.1674 10.1651C25.9434 10.1651 21.6935 14.4147 21.6935 19.6379C21.6935 24.8641 25.9434 29.1162 31.1674 29.1162C36.3943 29.1162 40.6466 24.8643 40.6466 19.6379C40.6466 14.4147 36.3943 10.1651 31.1674 10.1651ZM44.9062 3.68448C41.7959 3.68448 38.9854 5.47403 37.6259 8.17986C41.6245 10.4404 44.3311 14.7278 44.3311 19.6379C44.3311 19.7425 44.3256 19.8457 44.3232 19.9498C44.5171 19.9635 44.7115 19.9719 44.9062 19.9719C49.3986 19.9719 53.0535 16.3198 53.0535 11.8309C53.0535 7.33895 49.3986 3.68448 44.9062 3.68448ZM49.4367 35.7657C49.4442 35.8323 49.4502 35.9016 49.457 35.9695C49.4656 36.0556 49.4751 36.1414 49.4824 36.2278C49.4831 36.2362 49.484 36.244 49.4848 36.2526H54.9166C56.4279 36.2526 57.6575 35.0256 57.6575 33.5174V27.8491C57.6575 24.5743 56.4149 21.4939 54.1958 19.1416C52.0273 21.8881 48.6706 23.6562 44.9063 23.6562C44.5109 23.6562 44.1154 23.6361 43.7217 23.597C43.657 23.8024 43.5871 24.0054 43.5125 24.2065C46.8611 27.2388 48.9477 31.3199 49.4367 35.7657ZM16.4761 38.0947V44.2188C16.4761 46.0653 17.9783 47.5676 19.8251 47.5676H42.5152C44.362 47.5676 45.8641 46.0655 45.8641 44.2188V38.0947V37.7958C45.8641 33.9229 44.3589 30.2871 41.6779 27.5527C39.273 30.7378 35.457 32.8007 31.1674 32.8007C26.8791 32.8007 23.064 30.7373 20.6604 27.5514C17.9807 30.2871 16.4763 33.9233 16.4763 37.7958V38.0947H16.4761ZM4.68278 33.5172C4.68278 35.0254 5.90984 36.2524 7.41843 36.2524H12.8564C13.2418 31.6184 15.3574 27.3493 18.8273 24.2054C18.7526 24.0049 18.6831 23.802 18.6184 23.597C18.224 23.6361 17.8269 23.6564 17.4288 23.6564C13.6655 23.6564 10.3096 21.8875 8.14207 19.1398C5.92448 21.4908 4.68278 24.5718 4.68278 27.8491V33.5172Z" fill="#00CBDA"/>
<path d="M16.7573 62.6486L34.1765 67.3664H41.5945C40.6903 65.9722 40.2584 64.324 40.2584 62.6813C40.2584 58.6457 42.8356 54.2897 46.999 54.2897H74.623C74.9657 50.7856 78.0399 48.0342 81.7706 48.0342H87.4759C91.4351 48.0342 94.6562 51.1329 94.6562 54.9416V83.0929C94.6562 86.9015 91.4351 90.0001 87.4759 90.0001H81.7706C78.1043 90.0001 75.0728 87.3422 74.6443 83.9246L62.1653 88.5899C59.6433 89.6575 58.2492 89.7641 55.4626 89.7641H55.2317C54.2143 89.7641 53.3895 88.9393 53.3895 87.9219C53.3895 86.9045 54.2143 86.0797 55.2317 86.0797H55.4626C58.0072 86.0797 58.8602 85.9915 60.7615 85.1831C60.7866 85.1725 60.8116 85.1625 60.8373 85.153L74.5901 80.0113V57.9741H46.9988C45.2497 57.9741 43.9429 60.4594 43.9429 62.6815C43.9429 63.9723 44.3508 65.1194 45.0914 65.9116C45.9942 66.8771 47.3928 67.3666 49.2486 67.3666H59.4794C60.4968 67.3666 61.3216 68.1914 61.3216 69.2089C61.3216 70.2263 60.4968 71.0511 59.4794 71.0511H33.9315C33.7689 71.0511 33.6069 71.0295 33.4499 70.9871L15.7938 66.205C11.3162 64.9915 8.60851 66.2017 7.91248 67.9401C7.36114 69.3166 7.95711 71.3311 10.5312 72.7283L28.3291 82.3866C34.0945 85.5168 36.044 86.243 38.263 86.0848C38.3064 86.0817 38.3501 86.0802 38.3938 86.0802H38.6194C39.6368 86.0802 40.4616 86.905 40.4616 87.9224C40.4616 88.9399 39.6368 89.7647 38.6194 89.7647H38.4567C38.2063 89.7811 37.9596 89.7896 37.7139 89.7896C34.792 89.7896 32.0595 88.6046 26.5716 85.6251L8.77387 75.9668C4.88287 73.855 3.12222 69.991 4.49214 66.5705C5.69945 63.555 9.63654 60.7191 16.7573 62.6486ZM78.2748 83.0929C78.2748 84.87 79.843 86.3156 81.7706 86.3156H87.4759C89.4036 86.3156 90.9718 84.8698 90.9718 83.0929V54.9416C90.9718 53.1645 89.4036 51.7187 87.4759 51.7187H81.7706C79.843 51.7187 78.2748 53.1645 78.2748 54.9416V83.0929Z" fill="black"/>
<path d="M46.9259 86.0798H46.9363C47.9538 86.0798 48.7734 86.9046 48.7734 87.9221C48.7734 88.9395 47.9433 89.7643 46.9259 89.7643C45.9085 89.7643 45.0837 88.9395 45.0837 87.9221C45.0835 86.9046 45.9085 86.0798 46.9259 86.0798Z" fill="#00CBDA"/>
</svg>
