<svg width="65" height="59" viewBox="0 0 65 59" fill="none" xmlns="http://www.w3.org/2000/svg">
<path d="M51.6747 45.9045C51.0985 45.5049 50.3075 45.6486 49.9082 46.2248C49.5212 46.7834 49.0828 47.3265 48.6043 47.8393C48.2837 48.1832 47.8427 48.5978 47.3628 49.0061C46.8288 49.4606 46.7643 50.2618 47.2187 50.7959C47.4698 51.0909 47.8269 51.2425 48.1862 51.2425C48.4771 51.2425 48.7694 51.1431 49.0085 50.9397C49.5683 50.4631 50.0709 49.9899 50.4612 49.5708C51.0226 48.9693 51.5388 48.3301 51.9953 47.6709C52.3946 47.0947 52.2511 46.3038 51.6747 45.9045Z" fill="#00CBDA"/>
<path d="M46.1446 51.5974C45.8468 50.9626 45.0911 50.6894 44.4561 50.9871L44.4164 51.005C43.7749 51.288 43.4844 52.0375 43.7677 52.679C43.9771 53.1538 44.442 53.4363 44.9297 53.4363C45.1009 53.4363 45.275 53.4014 45.4415 53.3279C45.4725 53.3143 45.5032 53.3003 45.5341 53.286C46.1688 52.9882 46.4422 52.2324 46.1446 51.5974Z" fill="#00CBDA"/>
<path d="M61.2073 0.300781H3.79272C1.7013 0.300781 0 2.00233 0 4.0935V39.6723C0 41.7633 1.7013 43.4648 3.79272 43.4648H30.5272C31.6605 48.2598 34.2233 51.6558 36.4632 53.8315C39.7324 57.0076 43.4801 58.699 44.9285 58.699C46.3768 58.699 50.1244 57.0077 53.3938 53.8316C55.6337 51.6558 58.1966 48.2598 59.3298 43.4649H61.2073C63.2986 43.4649 65 41.7635 65 39.6724V4.0935C65 2.00233 63.2986 0.300781 61.2073 0.300781ZM57.3827 38.262C57.3828 44.9509 54.2952 49.3877 51.7049 51.932C48.6322 54.9501 45.4804 56.124 44.9285 56.1597C44.3765 56.124 41.2245 54.9502 38.1519 51.932C35.5618 49.3877 32.4742 44.9509 32.4742 38.262V32.0101C36.8452 30.746 40.9351 29.016 44.9289 26.7425C48.8327 28.9582 53.1059 30.7652 57.3827 32.0093V38.262ZM62.4609 39.6723C62.4609 40.3634 61.8984 40.9257 61.2073 40.9257H59.7713C59.8686 40.075 59.9219 39.1878 59.9219 38.262V31.0475C59.9219 30.4744 59.538 29.9726 58.9851 29.8224C54.3751 28.5705 49.7361 26.6198 45.5697 24.1811C45.1736 23.9493 44.6834 23.9496 44.287 24.1814C40.0026 26.6892 35.6145 28.5342 30.8719 29.8224C30.319 29.9727 29.9351 30.4746 29.9351 31.0475V38.262C29.9351 39.1878 29.9883 40.075 30.0857 40.9257H3.79272C3.10146 40.9257 2.53906 40.3633 2.53906 39.6723V18.0739H62.4609V39.6723ZM62.4609 15.535H2.53906V10.4571H62.4609V15.535ZM62.4609 7.91795H2.53906V4.0935C2.53906 3.40224 3.10146 2.83984 3.79272 2.83984H61.2073C61.8984 2.83984 62.4609 3.40224 62.4609 4.0935V7.91795Z" fill="black"/>
<path d="M15.2338 26.9609C14.4684 26.9609 13.7127 27.1157 13.0132 27.4107C12.3298 27.1212 11.5787 26.9609 10.7911 26.9609C7.64105 26.9609 5.07812 29.5236 5.07812 32.6736C5.07812 35.8235 7.64092 38.3865 10.7911 38.3865C11.5787 38.3865 12.3298 38.2263 13.0131 37.9367C13.7127 38.2317 14.4684 38.3865 15.2338 38.3865C18.384 38.3865 20.947 35.8235 20.947 32.6736C20.947 29.5236 18.384 26.9609 15.2338 26.9609ZM10.7911 35.8474C9.04096 35.8474 7.61718 34.4238 7.61718 32.6736C7.61718 30.9235 9.04096 29.5 10.7911 29.5C12.541 29.5 13.9648 30.9235 13.9648 32.6736C13.9648 34.4236 12.541 35.8474 10.7911 35.8474ZM15.5486 35.8319C16.1516 34.9266 16.5039 33.8405 16.5039 32.6737C16.5039 31.5069 16.1516 30.421 15.5487 29.5157C17.1515 29.6742 18.4078 31.03 18.4078 32.6737C18.4078 34.3174 17.1515 35.6734 15.5486 35.8319Z" fill="#00CBDA"/>
<path d="M12.8777 21.248H6.34765C5.64649 21.248 5.07812 21.8164 5.07812 22.5176C5.07812 23.2186 5.64649 23.7871 6.34765 23.7871H12.8777C13.5789 23.7871 14.1473 23.2185 14.1473 22.5176C14.1473 21.8164 13.5789 21.248 12.8777 21.248Z" fill="#00CBDA"/>
<path d="M16.6295 21.248H16.5693C15.8682 21.248 15.2998 21.8164 15.2998 22.5176C15.2998 23.2186 15.8682 23.7871 16.5693 23.7871H16.6295C17.3305 23.7871 17.899 23.2185 17.899 22.5176C17.899 21.8164 17.3305 21.248 16.6295 21.248Z" fill="#00CBDA"/>
<path d="M51.8971 35.3429C51.4016 34.8474 50.5979 34.8472 50.1019 35.3428L43.3128 42.1313L39.7552 38.5735C39.2594 38.0781 38.4555 38.0779 37.9598 38.5735C37.464 39.0694 37.4639 39.8732 37.9598 40.369L42.4152 44.8245C42.6631 45.0725 42.988 45.1965 43.3128 45.1965C43.6377 45.1965 43.9627 45.0725 44.2104 44.8245L51.897 37.1384C52.3929 36.6428 52.3929 35.8389 51.8971 35.3429Z" fill="#00CBDA"/>
</svg>
