<svg width="90" height="90" viewBox="0 0 90 90" fill="none" xmlns="http://www.w3.org/2000/svg">
<path d="M24.4394 64.0609L26.5608 61.9395L9.62144 45.0001L51.6216 3.00001H76.5003V9.00003H73.2423C72.8884 7.99921 72.1921 7.15569 71.2765 6.61857C70.3609 6.08146 69.2849 5.88532 68.2386 6.06483C67.1924 6.24433 66.2433 6.78793 65.5591 7.59953C64.8749 8.41114 64.4996 9.4385 64.4996 10.5C64.4996 11.5616 64.8749 12.5889 65.5591 13.4005C66.2433 14.2121 67.1924 14.7557 68.2386 14.9352C69.2849 15.1147 70.3609 14.9186 71.2765 14.3815C72.1921 13.8444 72.8884 13.0009 73.2423 12H76.5003V27.8787L46.9395 57.4395L49.0609 59.5609L79.061 29.5608C79.2002 29.4215 79.3107 29.2561 79.3861 29.0741C79.4615 28.8921 79.5003 28.6971 79.5003 28.5001V21.0001H84.0003C85.5916 21.0001 87.1177 20.3679 88.2429 19.2427C89.3682 18.1175 90.0003 16.5914 90.0003 15C90.0003 13.4087 89.3682 11.8826 88.2429 10.7574C87.1177 9.63217 85.5916 9.00003 84.0003 9.00003H79.5003V1.5C79.5003 1.10218 79.3422 0.720647 79.0609 0.439341C78.7796 0.158036 78.3981 9.95865e-10 78.0003 9.95864e-10H51.0002C50.8032 -7.17667e-06 50.6081 0.0387854 50.4262 0.114163C50.2442 0.189541 50.0788 0.300027 49.9395 0.439314L6.43937 43.9395C6.30007 44.0787 6.18958 44.2441 6.11419 44.4261C6.0388 44.6081 6 44.8032 6 45.0001C6 45.1971 6.0388 45.3922 6.11419 45.5742C6.18958 45.7562 6.30007 45.9216 6.43937 46.0608L24.4394 64.0609ZM67.5002 10.5C67.5007 10.1023 67.6589 9.72107 67.9401 9.43986C68.2213 9.15866 68.6026 9.00048 69.0002 9.00003V12C68.6026 11.9996 68.2213 11.8414 67.9401 11.5602C67.6589 11.279 67.5007 10.8977 67.5002 10.5ZM84.0003 12C84.7959 12 85.559 12.3161 86.1216 12.8787C86.6842 13.4413 87.0003 14.2044 87.0003 15C87.0003 15.7957 86.6842 16.5588 86.1216 17.1214C85.559 17.684 84.7959 18.0001 84.0003 18.0001H79.5003V12H84.0003Z" fill="black"/>
<path d="M40.7237 29.5974C40.9503 30.3215 41.3461 30.9813 41.8781 31.5222C42.4102 32.0632 43.0634 32.4697 43.7837 32.7082C43.8038 33.4208 43.9874 34.1192 44.3202 34.7495C44.653 35.3799 45.1263 35.9254 45.7034 36.3438C46.3231 36.8126 47.0446 37.1285 47.8094 37.266C48.5742 37.4035 49.3606 37.3587 50.1047 37.1351C50.5737 37.7172 51.1672 38.1869 51.8415 38.5096C52.5158 38.8322 53.2538 38.9997 54.0014 38.9997C54.7489 38.9997 55.487 38.8322 56.1613 38.5096C56.8356 38.1869 57.429 37.7172 57.898 37.1351C58.6422 37.3586 59.4286 37.4035 60.1934 37.266C60.9581 37.1285 61.6797 36.8126 62.2994 36.3438C62.8765 35.9254 63.3497 35.3799 63.6826 34.7495C64.0154 34.1192 64.1989 33.4208 64.219 32.7082C64.9393 32.4697 65.5925 32.0632 66.1246 31.5222C66.6567 30.9813 67.0524 30.3215 67.279 29.5974C67.504 28.9134 67.5647 28.186 67.4564 27.4741C67.3481 26.7623 67.0738 26.0859 66.6556 25.4997C67.0738 24.9136 67.3481 24.2372 67.4564 23.5253C67.5647 22.8135 67.504 22.0861 67.279 21.4021C67.0524 20.678 66.6567 20.0182 66.1246 19.4773C65.5925 18.9363 64.9393 18.5298 64.219 18.2913C64.1989 17.5787 64.0154 16.8803 63.6826 16.2499C63.3497 15.6196 62.8765 15.0741 62.2994 14.6556C61.6797 14.1868 60.9582 13.8709 60.1934 13.7334C59.4286 13.5959 58.6422 13.6408 57.898 13.8644C57.429 13.2823 56.8356 12.8126 56.1613 12.4899C55.487 12.1672 54.7489 11.9998 54.0014 11.9998C53.2538 11.9998 52.5158 12.1672 51.8415 12.4899C51.1672 12.8126 50.5737 13.2823 50.1047 13.8644C49.3606 13.6408 48.5742 13.596 47.8094 13.7335C47.0446 13.871 46.3231 14.1869 45.7034 14.6556C45.1263 15.0741 44.6531 15.6196 44.3202 16.2499C43.9874 16.8803 43.8038 17.5787 43.7837 18.2913C43.0634 18.5298 42.4102 18.9363 41.8781 19.4773C41.3461 20.0182 40.9503 20.678 40.7237 21.4021C40.4988 22.0861 40.438 22.8135 40.5463 23.5253C40.6546 24.2372 40.929 24.9136 41.3472 25.4997C40.929 26.0859 40.6546 26.7623 40.5463 27.4741C40.438 28.186 40.4988 28.9134 40.7237 29.5974ZM44.3093 24.2485C43.985 24.0556 43.7364 23.7576 43.6047 23.404C43.4729 23.0505 43.4659 22.6625 43.5848 22.3044C43.7069 21.913 43.9577 21.5744 44.2964 21.3436C44.6352 21.1127 45.0421 21.0032 45.451 21.0327C45.696 21.0393 45.9388 20.9857 46.1583 20.8767C46.3778 20.7677 46.5673 20.6066 46.7101 20.4074C46.8529 20.2083 46.9448 19.9772 46.9776 19.7343C47.0104 19.4914 46.9833 19.2442 46.8985 19.0143C46.7662 18.6676 46.7537 18.2866 46.8629 17.9319C46.9722 17.5773 47.1969 17.2694 47.5013 17.0572C47.8369 16.7936 48.2509 16.6497 48.6775 16.6484C49.1042 16.6471 49.5191 16.7884 49.8563 17.0498C50.0492 17.1931 50.2737 17.2879 50.5109 17.3263C50.7482 17.3647 50.9911 17.3456 51.2194 17.2705C51.4476 17.1954 51.6545 17.0666 51.8226 16.8949C51.9907 16.7231 52.1151 16.5135 52.1853 16.2837C52.4744 15.3372 53.3131 14.9997 54.0014 14.9997C54.6897 14.9997 55.5284 15.3372 55.8175 16.2837C55.8877 16.5135 56.0121 16.7231 56.1802 16.8949C56.3482 17.0666 56.5551 17.1954 56.7834 17.2705C57.0117 17.3456 57.2546 17.3647 57.4918 17.3263C57.729 17.2879 57.9535 17.1931 58.1465 17.0498C58.4835 16.7881 58.8985 16.6467 59.3252 16.648C59.752 16.6494 60.166 16.7934 60.5015 17.0572C60.8059 17.2694 61.0306 17.5773 61.1398 17.9319C61.2491 18.2866 61.2365 18.6676 61.1043 19.0143C61.0195 19.2442 60.9923 19.4914 61.0252 19.7343C61.058 19.9772 61.1499 20.2083 61.2927 20.4074C61.4355 20.6066 61.6249 20.7677 61.8444 20.8767C62.0639 20.9857 62.3068 21.0393 62.5518 21.0327C62.9605 21.0039 63.3671 21.1137 63.7057 21.3445C64.0443 21.5752 64.2953 21.9134 64.418 22.3044C64.5369 22.6625 64.5299 23.0505 64.3981 23.404C64.2663 23.7576 64.0177 24.0556 63.6935 24.2485C63.4867 24.3853 63.317 24.5711 63.1997 24.7895C63.0823 25.0078 63.0208 25.2518 63.0208 25.4997C63.0208 25.7476 63.0823 25.9917 63.1997 26.21C63.317 26.4284 63.4867 26.6142 63.6935 26.7509C64.0177 26.9439 64.2663 27.2419 64.3981 27.5954C64.5299 27.949 64.5369 28.337 64.418 28.6951C64.2957 29.0864 64.0449 29.4248 63.7061 29.6557C63.3674 29.8865 62.9606 29.9961 62.5518 29.9668C62.3068 29.9602 62.0639 30.0138 61.8444 30.1228C61.6249 30.2318 61.4355 30.3929 61.2927 30.5921C61.1499 30.7912 61.058 31.0223 61.0252 31.2652C60.9923 31.5081 61.0195 31.7553 61.1043 31.9852C61.2365 32.3319 61.2491 32.7129 61.1398 33.0675C61.0306 33.4222 60.8059 33.7301 60.5015 33.9423C60.1659 34.2059 59.7519 34.3498 59.3252 34.3511C58.8985 34.3524 58.4836 34.2111 58.1465 33.9496C57.9535 33.8064 57.729 33.7115 57.4918 33.6731C57.2546 33.6347 57.0117 33.6539 56.7834 33.729C56.5551 33.8041 56.3482 33.9329 56.1802 34.1046C56.0121 34.2764 55.8877 34.4859 55.8175 34.7158C55.5284 35.6623 54.6897 35.9998 54.0014 35.9998C53.3131 35.9998 52.4744 35.6623 52.1853 34.7158C52.1151 34.4859 51.9907 34.2764 51.8226 34.1046C51.6545 33.9329 51.4476 33.8041 51.2194 33.729C50.9911 33.6539 50.7482 33.6347 50.5109 33.6731C50.2737 33.7115 50.0492 33.8064 49.8563 33.9496C49.5191 34.2111 49.1042 34.3523 48.6775 34.351C48.2509 34.3497 47.8369 34.2058 47.5013 33.9423C47.1969 33.7301 46.9722 33.4222 46.8629 33.0675C46.7537 32.7129 46.7662 32.3319 46.8985 31.9852C46.9833 31.7553 47.0104 31.5081 46.9776 31.2652C46.9448 31.0223 46.8529 30.7912 46.7101 30.5921C46.5673 30.3929 46.3778 30.2318 46.1583 30.1228C45.9388 30.0138 45.696 29.9602 45.451 29.9668C45.042 29.9966 44.635 29.8872 44.2962 29.6563C43.9573 29.4255 43.7066 29.0867 43.5848 28.6951C43.4659 28.337 43.4729 27.949 43.6047 27.5954C43.7364 27.2419 43.985 26.9439 44.3093 26.7509C44.5161 26.6142 44.6857 26.4284 44.8031 26.21C44.9205 25.9917 44.9819 25.7476 44.9819 25.4997C44.9819 25.2518 44.9205 25.0078 44.8031 24.7895C44.6857 24.5711 44.5161 24.3853 44.3093 24.2485Z" fill="#00CBDA"/>
<path d="M22.9395 36.4395L13.9395 45.4395L16.0608 47.5608L25.0608 38.5608L22.9395 36.4395Z" fill="black"/>
<path d="M27.4395 40.9395L18.4395 49.9395L20.5608 52.0608L29.5608 43.0608L27.4395 40.9395Z" fill="#00CBDA"/>
<path d="M31.9394 45.4395L22.9395 54.4395L25.0608 56.5608L34.0607 47.5608L31.9394 45.4395Z" fill="black"/>
<path d="M36.4394 49.9394L27.4395 58.9395L29.5608 61.0608L38.5607 52.0608L36.4394 49.9394Z" fill="#00CBDA"/>
<path d="M40.9395 54.4395L36.4395 58.9395L38.5608 61.0608L43.0608 56.5608L40.9395 54.4395Z" fill="black"/>
<path d="M34.0608 28.9397L31.9395 31.061L35.5957 34.7173L37.717 32.596L34.0608 28.9397Z" fill="black"/>
<path d="M39.6877 34.565L37.5664 36.6863L46.9415 46.0614L49.0628 43.94L39.6877 34.565Z" fill="black"/>
<path d="M16.1361 10.4551C17.6855 10.8407 19.1007 11.6409 20.2298 12.77C21.3588 13.899 22.1591 15.3142 22.5447 16.8636C22.6258 17.1882 22.8131 17.4762 23.0768 17.6821C23.3405 17.8879 23.6654 17.9997 23.9999 17.9997C24.3344 17.9997 24.6593 17.8879 24.9229 17.6821C25.1866 17.4762 25.3739 17.1882 25.4551 16.8636C25.8407 15.3142 26.6409 13.899 27.77 12.77C28.899 11.6409 30.3142 10.8407 31.8636 10.4551C32.1881 10.3739 32.4762 10.1866 32.6821 9.92295C32.8879 9.65928 32.9997 9.33438 32.9997 8.99987C32.9997 8.66537 32.8879 8.34046 32.6821 8.07679C32.4762 7.81313 32.1881 7.62583 31.8636 7.54468C30.3142 7.15908 28.899 6.35881 27.77 5.22977C26.6409 4.10073 25.8407 2.68554 25.4551 1.1361C25.3739 0.811583 25.1866 0.523509 24.9229 0.31766C24.6593 0.111811 24.3344 0 23.9999 0C23.6654 0 23.3405 0.111811 23.0768 0.31766C22.8131 0.523509 22.6258 0.811583 22.5447 1.1361C22.1591 2.68554 21.3588 4.10073 20.2298 5.22977C19.1007 6.35881 17.6855 7.15908 16.1361 7.54468C15.8116 7.62583 15.5235 7.81313 15.3177 8.07679C15.1118 8.34046 15 8.66537 15 8.99987C15 9.33438 15.1118 9.65928 15.3177 9.92295C15.5235 10.1866 15.8116 10.3739 16.1361 10.4551ZM23.9999 5.28361C24.9428 6.78657 26.2132 8.05698 27.7161 8.99987C26.2132 9.94276 24.9428 11.2132 23.9999 12.7161C23.057 11.2132 21.7866 9.94276 20.2836 8.99987C21.7866 8.05698 23.057 6.78657 23.9999 5.28361Z" fill="#00CBDA"/>
<path d="M71.752 41.6272L60.4395 52.9397L62.5608 55.061L73.8733 43.7485L71.752 41.6272Z" fill="#00CBDA"/>
<path d="M76.9413 36.4397L73.9414 39.4397L76.0627 41.561L79.0627 38.5611L76.9413 36.4397Z" fill="#00CBDA"/>
<path d="M88.5004 60H75.0004C74.6025 60 74.221 60.1581 73.9397 60.4394C73.6584 60.7207 73.5004 61.1022 73.5004 61.5V62.9217C69.8599 60.3056 65.5478 58.784 61.0717 58.536C56.5956 58.2881 52.1418 59.3241 48.2347 61.5222L45.6074 63H33.0002C31.6353 62.9995 30.2961 63.3715 29.1271 64.0761C27.9581 64.7807 27.0037 65.7911 26.3667 66.9982C25.7297 68.2054 25.4344 69.5636 25.5125 70.9263C25.5907 72.2889 26.0394 73.6044 26.8103 74.7308L10.8112 66.7823C9.85427 66.3085 8.80252 66.0574 7.73473 66.0477L7.08992 66.0428C5.50033 66.0306 3.95345 66.5571 2.70131 67.5364C1.44917 68.5157 0.565558 69.8902 0.194438 71.4359C-0.176682 72.9816 -0.0134388 74.6075 0.657572 76.0486C1.32858 77.4896 2.46781 78.661 3.88966 79.3719L22.2957 88.5751C24.1711 89.5101 26.2376 89.9978 28.3332 90.0002H88.5004C88.8982 90.0002 89.2798 89.8421 89.5611 89.5608C89.8424 89.2795 90.0004 88.898 90.0004 88.5001V61.5C90.0004 61.1022 89.8424 60.7207 89.5611 60.4394C89.2798 60.1581 88.8982 60 88.5004 60ZM23.6372 85.8916L5.23141 76.6885C4.41824 76.282 3.76614 75.6128 3.38076 74.7894C2.99539 73.966 2.89931 73.0366 3.1081 72.1517C3.31688 71.2669 3.8183 70.4784 4.53112 69.9142C5.24394 69.3499 6.1264 69.0428 7.03554 69.0426H7.06723L7.71167 69.0475C8.32416 69.0531 8.92745 69.1971 9.47643 69.4688L26.3327 77.8434C26.5402 77.9464 26.7686 78 27.0002 78.0001H46.5003C46.8981 78.0001 47.2796 77.8421 47.561 77.5608C47.8423 77.2795 48.0003 76.8979 48.0003 76.5001C48.0003 76.1023 47.8423 75.7207 47.561 75.4394C47.2796 75.1581 46.8981 75.0001 46.5003 75.0001H33.0002C31.8068 75.0001 30.6622 74.526 29.8183 73.6821C28.9743 72.8381 28.5002 71.6936 28.5002 70.5001C28.5002 69.3066 28.9743 68.162 29.8183 67.3181C30.6622 66.4742 31.8068 66.0001 33.0002 66.0001H46.0002C46.2578 66.0001 46.5111 65.9338 46.7356 65.8075L49.7054 64.1369C53.2725 62.1305 57.3577 61.236 61.4368 61.5679C65.5158 61.8999 69.4026 63.4433 72.5983 66.0001L73.5004 66.721V87.0001H28.333C26.7031 86.9982 25.0959 86.6188 23.6372 85.8916ZM87.0004 87.0001H76.5004V63H87.0004V87.0001Z" fill="black"/>
<path d="M81.75 82.5002C82.195 82.5002 82.63 82.3683 83 82.121C83.37 81.8738 83.6584 81.5224 83.8287 81.1113C83.999 80.7001 84.0436 80.2477 83.9568 79.8113C83.8699 79.3748 83.6557 78.9739 83.341 78.6593C83.0263 78.3446 82.6254 78.1303 82.189 78.0435C81.7525 77.9567 81.3001 78.0012 80.889 78.1715C80.4778 78.3418 80.1264 78.6302 79.8792 79.0002C79.632 79.3702 79.5 79.8052 79.5 80.2502C79.5006 80.8468 79.7379 81.4187 80.1597 81.8405C80.5815 82.2623 81.1535 82.4996 81.75 82.5002Z" fill="#00CBDA"/>
<path d="M31.0608 34.9395L28.9395 37.0608L40.9395 49.0609L43.0609 46.9395L31.0608 34.9395Z" fill="#00CBDA"/>
</svg>
