<svg width="90" height="64" viewBox="0 0 90 64" fill="none" xmlns="http://www.w3.org/2000/svg">
<path d="M88.2422 7.39062C85.3344 7.39062 82.9688 5.02496 82.9688 2.11719C82.9688 1.14635 82.1818 0.359375 81.2109 0.359375H8.78906C7.81822 0.359375 7.03125 1.14635 7.03125 2.11719C7.03125 5.02496 4.66559 7.39062 1.75781 7.39062C0.786973 7.39062 0 8.1776 0 9.14844V54.8516C0 55.8224 0.786973 56.6094 1.75781 56.6094C4.66559 56.6094 7.03125 58.975 7.03125 61.8828C7.03125 62.8537 7.81822 63.6406 8.78906 63.6406H81.2109C82.1818 63.6406 82.9688 62.8537 82.9688 61.8828C82.9688 58.975 85.3344 56.6094 88.2422 56.6094C89.213 56.6094 90 55.8224 90 54.8516V9.14844C90 8.1776 89.213 7.39062 88.2422 7.39062ZM86.4844 53.2704C83.0459 53.9713 80.3306 56.6867 79.6296 60.1252H63.2812V54.8517C63.2812 53.8809 62.4943 53.0939 61.5234 53.0939C60.5526 53.0939 59.7656 53.8809 59.7656 54.8517V60.1252H10.3704C9.66937 56.6865 6.95408 53.9712 3.51562 53.2702V10.7298C6.95408 10.0288 9.66937 7.31346 10.3704 3.875H59.7656V9.14844C59.7656 10.1193 60.5526 10.9062 61.5234 10.9062C62.4943 10.9062 63.2812 10.1193 63.2812 9.14844V3.875H79.6296C80.3305 7.31346 83.0459 10.0288 86.4844 10.7298V53.2704Z" fill="black"/>
<path d="M55.9549 31.0249C53.447 27.2622 49.0841 25.0524 44.5535 25.2593L39.915 25.5007L31.3764 11.7373C31.056 11.2207 30.491 10.9062 29.8828 10.9062H26.3672C25.839 10.9062 25.3385 11.1439 25.0049 11.5533C24.6711 11.9629 24.5391 12.5006 24.6456 13.0181L27.3468 26.157C20.2607 26.5357 20.6065 26.4886 19.976 26.568L15.4819 20.4162C15.151 19.9632 14.6236 19.6953 14.0625 19.6953H8.78908C8.20672 19.6953 7.66232 19.9836 7.33519 20.4652C7.00806 20.9469 6.94039 21.5593 7.15502 22.1005C8.43365 25.3282 10.4217 30.3804 11.0285 32C10.4217 33.6196 8.43365 38.6718 7.15484 41.8995C6.94039 42.4409 7.00789 43.0531 7.33502 43.5348C7.66232 44.0164 8.20689 44.3047 8.78908 44.3047H14.0625C14.6236 44.3047 15.151 44.0368 15.4819 43.5838L19.9758 37.4322C20.6002 37.5109 20.2437 37.4636 27.3467 37.843L24.6454 50.9819C24.5391 51.4994 24.6711 52.0371 25.0047 52.4467C25.3385 52.8561 25.8388 53.0938 26.367 53.0938H29.8827C30.4909 53.0938 31.0558 52.7793 31.3764 52.2625L39.915 38.4992L44.5648 38.741C49.0846 38.9463 53.447 36.7377 55.9549 32.9747C56.3483 32.3844 56.3483 31.6154 55.9549 31.0249ZM44.7362 35.2298L39.0602 34.9345C38.4202 34.9002 37.8128 35.2187 37.4752 35.7631L28.9048 49.5781H28.5233L31.2022 36.5482C31.3054 36.0465 31.1845 35.5246 30.8714 35.1194C30.5582 34.7141 30.0837 34.4655 29.572 34.4388C20.0904 33.8949 21.1929 34.0921 19.5914 33.8135L19.4905 33.796C18.8316 33.6813 18.1651 33.951 17.7708 34.491L13.1697 40.7891H11.3753C14.6479 32.5135 14.6479 32.4032 14.6479 32C14.6479 31.5968 14.6479 31.4865 11.3753 23.2109H13.1697L17.7706 29.509C18.1651 30.0488 18.8322 30.3188 19.4903 30.204L19.5912 30.1865C21.1922 29.908 20.1106 30.1038 29.5719 29.5612C30.0834 29.5345 30.5578 29.2861 30.8712 28.8806C31.1845 28.4752 31.3053 27.9535 31.2021 27.4518L28.5232 14.4219H28.9046L37.4752 28.2369C37.8128 28.7813 38.4195 29.0989 39.0602 29.0655L44.7249 28.7709C47.6093 28.6387 50.4034 29.8562 52.2823 32C50.4035 34.1438 47.6076 35.3597 44.7362 35.2298Z" fill="#00CBDA"/>
<path d="M61.5234 14.4219C60.5526 14.4219 59.7656 15.2088 59.7656 16.1797V19.6953C59.7656 20.6662 60.5526 21.4531 61.5234 21.4531C62.4943 21.4531 63.2812 20.6662 63.2812 19.6953V16.1797C63.2812 15.2088 62.4943 14.4219 61.5234 14.4219Z" fill="black"/>
<path d="M61.5234 28.4844C60.5526 28.4844 59.7656 29.2713 59.7656 30.2422V33.7578C59.7656 34.7287 60.5526 35.5156 61.5234 35.5156C62.4943 35.5156 63.2812 34.7287 63.2812 33.7578V30.2422C63.2812 29.2713 62.4943 28.4844 61.5234 28.4844Z" fill="#00CBDA"/>
<path d="M61.5234 42.5469C60.5526 42.5469 59.7656 43.3338 59.7656 44.3047V47.8203C59.7656 48.7912 60.5526 49.5781 61.5234 49.5781C62.4943 49.5781 63.2812 48.7912 63.2812 47.8203V44.3047C63.2812 43.3338 62.4943 42.5469 61.5234 42.5469Z" fill="black"/>
<path d="M81.2109 14.4219H68.5547C67.5838 14.4219 66.7969 15.2088 66.7969 16.1797C66.7969 17.1505 67.5838 17.9375 68.5547 17.9375H81.2109C82.1818 17.9375 82.9688 17.1505 82.9688 16.1797C82.9688 15.2088 82.1818 14.4219 81.2109 14.4219Z" fill="#00CBDA"/>
<path d="M81.2109 24.9688H68.5547C67.5838 24.9688 66.7969 25.7557 66.7969 26.7266C66.7969 27.6974 67.5838 28.4844 68.5547 28.4844H81.2109C82.1818 28.4844 82.9688 27.6974 82.9688 26.7266C82.9688 25.7557 82.1818 24.9688 81.2109 24.9688Z" fill="black"/>
<path d="M81.2109 35.5156H68.5547C67.5838 35.5156 66.7969 36.3026 66.7969 37.2734C66.7969 38.2443 67.5838 39.0312 68.5547 39.0312H81.2109C82.1818 39.0312 82.9688 38.2443 82.9688 37.2734C82.9688 36.3026 82.1818 35.5156 81.2109 35.5156Z" fill="#00CBDA"/>
<path d="M81.2109 46.0625H68.5547C67.5838 46.0625 66.7969 46.8495 66.7969 47.8203C66.7969 48.7912 67.5838 49.5781 68.5547 49.5781H81.2109C82.1818 49.5781 82.9688 48.7912 82.9688 47.8203C82.9688 46.8495 82.1818 46.0625 81.2109 46.0625Z" fill="black"/>
</svg>
